<mxfile host="app.diagrams.net" modified="2024-01-09T20:13:18.171Z" agent="Mozilla/5.0 (Macintosh; Intel Mac OS X 10_15_7) AppleWebKit/537.36 (KHTML, like Gecko) Chrome/120.0.0.0 Safari/537.36" etag="FUhoc0RmR2fRL06DKhWG" version="22.1.17" type="device">
  <diagram name="Page-1" id="8BvUVVQ7drAYnyx3fgqA">
    <mxGraphModel dx="990" dy="650" grid="1" gridSize="10" guides="1" tooltips="1" connect="1" arrows="1" fold="1" page="1" pageScale="1" pageWidth="850" pageHeight="1100" math="0" shadow="0">
      <root>
        <mxCell id="0" />
        <mxCell id="1" parent="0" />
        <mxCell id="l7Cj7QAhOYk1wxINT48V-1" value="" style="shape=image;verticalLabelPosition=bottom;labelBackgroundColor=default;verticalAlign=top;aspect=fixed;imageAspect=0;image=data:image/jpeg,/9j/4AAQSkZJRgABAQEASABIAAD/2wBDAAgGBgcGBQgHBwcJCQgKDBQNDAsLDBkSEw8UHRofHh0aHBwgJC4nICIsIxwcKDcpLDAxNDQ0Hyc5PTgyPC4zNDL/2wBDAQkJCQwLDBgNDRgyIRwhMjIyMjIyMjIyMjIyMjIyMjIyMjIyMjIyMjIyMjIyMjIyMjIyMjIyMjIyMjIyMjIyMjL/wAARCAFoBDgDASIAAhEBAxEB/8QAHwAAAQUBAQEBAQEAAAAAAAAAAAECAwQFBgcICQoL/8QAtRAAAgEDAwIEAwUFBAQAAAF9AQIDAAQRBRIhMUEGE1FhByJxFDKBkaEII0KxwRVS0fAkM2JyggkKFhcYGRolJicoKSo0NTY3ODk6Q0RFRkdISUpTVFVWV1hZWmNkZWZnaGlqc3R1dnd4eXqDhIWGh4iJipKTlJWWl5iZmqKjpKWmp6ipqrKztLW2t7i5usLDxMXGx8jJytLT1NXW19jZ2uHi4+Tl5ufo6erx8vP09fb3+Pn6/8QAHwEAAwEBAQEBAQEBAQAAAAAAAAECAwQFBgcICQoL/8QAtREAAgECBAQDBAcFBAQAAQJ3AAECAxEEBSExBhJBUQdhcRMiMoEIFEKRobHBCSMzUvAVYnLRChYkNOEl8RcYGRomJygpKjU2Nzg5OkNERUZHSElKU1RVVldYWVpjZGVmZ2hpanN0dXZ3eHl6goOEhYaHiImKkpOUlZaXmJmaoqOkpaanqKmqsrO0tba3uLm6wsPExcbHyMnK0tPU1dbX2Nna4uPk5ebn6Onq8vP09fb3+Pn6/9oADAMBAAIRAxEAPwD3+iiigAooooAKKKKACiiigAooooAKKKKACiiigAooooAKKKKACiiigAooooAKKKKACiiigAooooAKKKKACiiigAooooAKKKKACiiigAooooAKKKKACiiigAooooAKKKKACiiigAooooAKKKKACiiigAooooAKKKKACiiigAooooAKKKKACiiigAooooAKKKKACiiigAooooAKKKKACiiigAooooAKKKKACiiigAooooAKKKKACiiigAooooAKKKKACiiigAooooAKKKKACiiigAooooAKKKKACiiigAooooAKKKKACiiigAooooAKKKKACiiigAooooAKKKKACiiigAooooAKKKKACiiigAooooAKKKKACiiigAooooAKKKKACiiigAooooAKKKKACiiigAooooAKKKKACiiigAooooAKKKKACiiigAooooAKKKKACiiigAooooAKr/b7P+0f7O+1wfbvK8/7N5g8zy87d+3rtzxnpmrFef8A/Nwv/cqf+3dAHoFFcj8RPFr+EPD0NzC1vHc3l3HZwzXOfKhLZJkfHJCqpP5Vx9h8QTYeIdGt08cWfiWHUbtLOa3W0SGSFn4WRCvVQ2AQ2etAHoWq+MNC0TU4dNvr4reyqGWCKGSVtpOASEU7RnucVq2t7a30byWlzDcIjtGzQyBwrqcMpI6EHqO1eX6TouuzfFjxSsXiu5heKKzd3FnAxkRt5WPleAoyMjk55qT4V6TrK295dN4kuGtItXu1lszawhZmDkFi23cMnnAIH4UAekajqunaPbC51O/tbGAsEEtzMsSljkgZYgZ4PHtWV/wnfg//AKGvQ/8AwYw//FVtXNpbXkYjureKeMHIWVAwz64Nec+H9J01/jF4xhbT7Roo7WyKIYVKqShzgY4oA9GtLu2v7WO6s7iK4t5RujlhcOjj1BHBqavMPAl34n1fw/HrN9rsVpptnczj7Nb2MWZ4o5GzuOPl4BUbQOmckmuft/iXcatpsmsHx9pekXL7nt9HazWRFUE7Ulc/MSQBkqRjNAHt9FeW618UG/4RnwrPb3VrpE+vozyXlyvmR2ioo8whf4juIC549aPC/jsv41sNBHiu18S22oxSlZkt1hltpI13YO0BSrKGxxnIoA9SorO046yb3URqa2QtRMPsJt928x458zPG7PpxXMfFnVL3TPAky2E7W895cRWfnocGJZGwxB7HGRn3oA6KXxR4ft702U2u6ZHdg7fIe7jD59NpOa1gQRkciuesvAvhew0lNMi0LT3tlTawlt1dn92JGSfc1nX13NoPjPwX4d0xxBpM9veJJbhQ2VijTyxuOWGMnoee+aAOyorlZtYv0+Klpoqz40+TR5blodi8yCVVDbsZ6EjGcVzWhXHjjxTDr0tv4kisEstUurW0AsY5GkCN8ockYCjgcDd1JPSgD0+ivKLXXvGuvfDo+NbbV7XTvJtHuF05LRZEnEQO/e7fMNxVsBcYBHJ5NdBeeJ72fV/ATWkvk2mt+ZJcQ7Vbcv2fzFGSMjBx0xQB29UdN1iw1dr1bGfzTZXLWlx8jLslUAsvIGcBhyMjnrWHqesX9v8AEnQNJin22N1Z3Us0WxTuZNm05xkYyehrF8HTm207x/MLyGyKa/eMLqcZjhPlx/MwyMgdcZFAHolQfbbX7f8AYPtMP2zyvO+z+YPM8vON+3rtzxnpmvIl+IU+m6lps0HjF9ftri7it57eTRmt0CO23fHKEAyCQcEnNaOpaTrN38cJls/ElxYu+hCVHS1hfy4/Px5YDKcjd82TzzjOKAPRRrFgddbRBP8A8TFbYXZh2N/qixQNuxj7wIxnPtV6uNTUNTPxLk0A35Nuvh5J9/kx7vPMzIZOnoB8v3faszTfHV3afC/VdV1h1k1rRnmsroBQA9yrbU4AAw25DwO9AHotFeX+IvGOq+GNL8MaLqWtW1lq2owmS/1W6hUrBtUFtqKApYs20cY45pfCfjoz+NLfQP8AhKLXxJbXtvJJHcx26wywSJglWCgKVK5IOM5FAHp9VTqenjUxphvrYX5j80Wvmr5pT+9sznHvirDukUbSSMFRQWZicAAd68MZLiTT5fi4qSG4TVxOiY5OmL+4K49SCW/WgD3WqOpaxYaR9j+3z+T9suUtIPkZt8r52rwDjODyePeuV8d69rFkPDC+HLqBX1PUUgLyIHjeNo2IJ74HDcEE4xnmsPx9Z69puieHVl1ddX1FvEto1s89ukKIxVgqkJ1Xdznrz1oA9UrPg13Tbm71K1ju183TCovA4KiHcu8ZYgAjbzkE4rjrrUPE3hDxFoY1XW01jS9WuxYuGs0ge3mYEoUK9VJBBDZI9TUN9f6rqw+I+mjUTbx2KRC2dIIyY0MAd15HzbuRk5IzxjAoA9Dt7iC7torm2mjmglUPHLGwZXU8ggjgg+tSV5n4Qt9b0j4VxasfEU9xEugeba2r2sKrbsIgykMF3NjGPmznvWp4KbxTqeh6V4g1nxBF5dxYrK1mlpGqHKcSM/XJ4YgYUZxjFAHcUV4pqfxDudGtZNTtPHQ1t7dgZLJdEZLeZcgMEmVTtOM4Jcjiu08Sa5q974p0jwx4fvEsJbu1e+ub54RK0UKkABFbgkscc9KAO3orgNF1HxNafFJvDer6pHfWK6M15FItukTSN5yqC+Bwwyw4IBGDjNcnB8S215LnUf8AhPtO8PqZXW005rNZTsUkK0zMM5bGcLjAIoA9rrO1PxBouivGmq6vp9g8gJRbq5SIsB1I3EZrP8D+JG8W+DtP1p40jlnVllWM5XejFGK+xKkj2Ncb47eZPix4XaDRf7Yk+w3WLTfGu7pzmQheOtAHoema7o+t+b/ZOq2N/wCTjzPslwkuzOcZ2k4zg9fQ1oV5xrvi258J+ELjUm8M2+g3s91FaQLPJE0ZLZ/eOYiflUbjjrx71iW3xDOm6zpKr47svEkV7dx2tzaCzSFog5wJIyvYHGQ2eO9AHsVFeUa98QfO8Y6no/8Awl1p4Zs9NKR+Y1ss01zIVy2N4Kqq5A6ZJzTrH4haveeA/Elzp0ltq+qaPMsUd3bQny7iNiuJfLHOVUsSo4ytAHqtFcJ4M1OTVb5ZYPiDba9CsZMtn9jiikU9mwuGUA9mBrqPEcepy+HNQXRrg2+p+QxtZAitiQDIGGBHJGOnegDTorzvUvHV3efDHSdU0Z1j1nWnhs7UbQwjuGba/ByMLtfqMcc1a8Z6y2jz2NtL41/sh2h/1cWnLdXE7DgvtAbC/RcZzzQB280qQQyTSNtjjUsxxnAAyar6ZqdnrOmW2pWE3nWlygkik2ldynocEAj8RXC+EPFtx4h0nxPp91eC/k0xcJe/ZGtjPHJGWUtGwBVgQwPAB4IrO0bWL/SPhv8ADdbGfyhe39paXHyK2+JkkLLyDjJUcjB460AerUVyviPWL+w8Y+EbC2n8u11C4uEuU2KfMCwllGSMjBGeMVxuq/EP7b4p1ewPjKz8M2mmzm1RWtVmmuZAPnY7wQqg8AAZODyKAPXKo6prFhotvFPqE/kxzTpbo2xmzI5wo4B6nv0rzm0+J12/w71PUYmtNQ1WzvxplvPEpWG5diojlx2BDZIz1U9M1W8cad4p03TdCOqa9Fq9vNrFmJlNmkJhfzAQUK9V4Iw2TyDnrQB67VHTtYsNVlvY7KfzXsbg21wNjLskABK8gZ4I5GRV6vOV8S6uPDPxEvBdAXGk3d0lk4iT90EhVl4xhsEk/NmgD0aivKtR1bxrongm18aXWu28yRxQT3OlCyQI0blQQJPvb8NnPAznAxXqtAFeG/s7m6uLWC7gluLYqJ4UkDPEWGV3AcrkcjPWj7fZ/wBo/wBnfa4Pt3lef9m8weZ5edu/b1254z0zXD+Df+Sp/EP/AK62H/og0f8ANwv/AHKv/t3QB1l74l0HTbr7Lf63ptrcf88p7pEf8ic1PdaxpljYLf3mo2dvZNjFxNOqRnPT5icc15Ro1u3gi2v7XxR4GudVMlzLNLrNrbR3f2hGYkNICdy4Hb2q749utF1H4WaRPoIgOky6la+QsSbUC+bgrt7YORjtQB6HYeJtB1WYQ6drem3kp/gt7uORvyUmtSuR8YeC9A1Tw1fhtNtLe5igeWC6hiWOSGRQSrKwAIwQKsfDzV7rXfh9ompXrF7qa2Akc9XZSV3H3OM/jQB01FFFABRRRQAUUUUAFFFFABRRRQAUUUUAFFFFABRRRQAUUUUAFFFFABRRRQAUUUUAFFFFABRRRQAUUUUAFFFFABRRRQAUUUUAFFFFABRRRQAUUUUAFFFFABRRRQAUUUUAFFFFABRWfr19Npnh3U9QtwhmtbSWaMSAlSyoWGQCDjI9RVb7N4m/6C+kf+CuT/5IoA2aKxvs3ib/AKC+kf8Agrk/+SKPs3ib/oL6R/4K5P8A5IoA2aKxvs3ib/oL6R/4K5P/AJIo+zeJv+gvpH/grk/+SKANmisb7N4m/wCgvpH/AIK5P/kij7N4m/6C+kf+CuT/AOSKANmisb7N4m/6C+kf+CuT/wCSKPs3ib/oL6R/4K5P/kigDZorG+zeJv8AoL6R/wCCuT/5Io+zeJv+gvpH/grk/wDkigDZorG+zeJv+gvpH/grk/8Akij7N4m/6C+kf+CuT/5IoA2aKxvs3ib/AKC+kf8Agrk/+SKPs3ib/oL6R/4K5P8A5IoA2aKxvs3ib/oL6R/4K5P/AJIo+zeJv+gvpH/grk/+SKANmisb7N4m/wCgvpH/AIK5P/kij7N4m/6C+kf+CuT/AOSKANmuE13w74pX4jJ4o8P/ANjun9kjTni1CWVDnzjIWGxD/sjr610X2bxN/wBBfSP/AAVyf/JFH2bxN/0F9I/8Fcn/AMkUAc/feHfFHifSzDrsukWF7Z3MN5plzpzSSiOZC3Lq6rkYOMD1NaGnjx497brqbeHYrRWBme1855JF9FDYC5+rVofZvE3/AEF9I/8ABXJ/8kUfZvE3/QX0j/wVyf8AyRQBV0vQLqy8da/rkkkJttRgtY4kVjvUxhg24YwPvDGCfwrO8N6B4k8N6reWsTaVcaFc38155jPItzGJCW27dpU4PfI4rb+zeJv+gvpH/grk/wDkij7N4m/6C+kf+CuT/wCSKANmuX0rw3eWPxB8Q6/LJAbTUYLaOFFY71MakNuGMDrxgmr/ANm8Tf8AQX0j/wAFcn/yRR9m8Tf9BfSP/BXJ/wDJFAFPwX4bn8P+EU0bUWgmfzbhn8okoVkldgOQD0bB4rG0rQPG3haxXRtEutDvNKgJFrJqHmpNEhOQjBAQ+M4zxXS/ZvE3/QX0j/wVyf8AyRR9m8Tf9BfSP/BXJ/8AJFAGXrvhjVdUi0TU4NQtYfEmklmjmMJ+zyl12yIy5yFbjvkYq3pA8ZPqCNrZ0KKzVTuSx815HbHHzPgKPwNWfs3ib/oL6R/4K5P/AJIo+zeJv+gvpH/grk/+SKALGnDWRe6idTayNqZh9hFvu3iPHPmZ43Z9OKi8TeHrLxV4eu9Gv9wguFA3ocMjA5Vh7ggGmfZvE3/QX0j/AMFcn/yRR9m8Tf8AQX0j/wAFcn/yRQBhW9r8SLO2WyF74cvBGNi39wsyysP7zRr8pb6MBUmv+GNcu28O6rp+o2kuvaNvBku4ykNyJECyZCZKZwCMZxWz9m8Tf9BfSP8AwVyf/JFH2bxN/wBBfSP/AAVyf/JFAGBpPhnxJ/wsGPxRrd5pzj+zXs/s9pvAiJkVht3D5hwSWOOSBjArV8HaBdeHrPVIbuSF2u9UubxDExICSPlQcgc+v86tfZvE3/QX0j/wVyf/ACRR9m8Tf9BfSP8AwVyf/JFAGJofhDUNM+Eh8JzTWzX5sLi28xGYxbn34OSucfMM8VFqHg3VW8PeFRp13aRa34fSLyzMGaCUiLy5FJA3AEdDjPtXQfZvE3/QX0j/AMFcn/yRR9m8Tf8AQX0j/wAFcn/yRQBz1l4Z8T3PjzTfEutXembLa1mtza2m/bHuxgqWGWJ5yTt6DA6mo38AXV54X8Y6Nd3cUX9uanNeQSxZby1YRlQwIHOU5AyMHrXS/ZvE3/QX0j/wVyf/ACRR9m8Tf9BfSP8AwVyf/JFAHHa34V8c+JrGwtdSvNBtorK7guPLs/NxPsYE7iy/KAM4UA845GK2td0DXl8ZW/ibw++myTiwawmt79nRSnmbwysgJznjkVr/AGbxN/0F9I/8Fcn/AMkUfZvE3/QX0j/wVyf/ACRQBRttA1AfEH/hI7h7UQtoqWLxxuxYTCVnJGR9zB4Oc+1YGr/Du/1D4gLqUN3bJ4fubi3vdQtGLeZJPArBNoxt2nKbskZx7V1v2bxN/wBBfSP/AAVyf/JFH2bxN/0F9I/8Fcn/AMkUAUfFPhu91PUNM1rRruG11jTDIITcIWhmjcAPG4HOOAQR0qbRh4we/wB+uHRIrQIR5dj5ruzdiWfAA68YP1qx9m8Tf9BfSP8AwVyf/JFH2bxN/wBBfSP/AAVyf/JFAEPjTS9U1vwlf6Vo88EF3eJ5JlnZgqRscP0BOduQPr1rFT4P+BFtFgOgQMQmwylm3HjGc56966D7N4m/6C+kf+CuT/5Io+zeJv8AoL6R/wCCuT/5IoA5TT/BOvRaN4Qsb28sppNA1DzGlV3/AHluquqAfL94BlGOnHWtjx94Y1DxTp2lW+m3kVnPZ6nDemeTJ2BA3KgA5YEggHAOOorT+zeJv+gvpH/grk/+SKPs3ib/AKC+kf8Agrk/+SKAOfPhrxNr3iHSrzxPc6UljpM32mC308SEzz4wruX+6FySAM/Wr1j4VuI9Y8YT3U0X2bXDGIvLJLooh8ttwIAznpgmtL7N4m/6C+kf+CuT/wCSKPs3ib/oL6R/4K5P/kigDndF8PeKrXwfceGNQbRntY9MeytLmCSUSM23YhdSuAMdcE/Stux8Ouvw8tvDN5MBINKXT5pYSSAfKEbMuQD6kZxU/wBm8Tf9BfSP/BXJ/wDJFH2bxN/0F9I/8Fcn/wAkUAcLqPgrxzqfgRvCT3+gwWcVssEc0Cyh51TG0OCMRg4BJG7PQYzWv4q0may1XQte0/V9LsdXtIWtBHqUhSC7jIBZMjkEEbhgH3FdH9m8Tf8AQX0j/wAFcn/yRVTUNB1bVoBBqVx4fvIQciO50V5FB9cNORQBx3hGa+1f4x3+p3N/Y3xt9FFtM2nEtb27tMGWJXPLNhWYnjrjAxWxp3hzxd4Tik0zw3Potzo3mvJbR6h5qSWwdixQFAQ6gk4zg81tWGiaxpdsLbT7rQLSAHIit9GeNc/QTgVa+zeJv+gvpH/grk/+SKAL2mLfpp0K6pLby3uD5r26FIyc/wAIJJwBgcmsLUvDd5efETRPEMckAtLC1nhlRmPmFnxjaMYx65Iq/wDZvE3/AEF9I/8ABXJ/8kUfZvE3/QX0j/wVyf8AyRQBH4t8OL4n0UWa3LWl1BPHdWlyq7vJmjOVbHcdiPQ1RsV8ftd26ag/hxLVXUzyW4maSRQeQqtgKT9TitL7N4m/6C+kf+CuT/5Io+zeJv8AoL6R/wCCuT/5IoAxLrw54g0jxJqOseFrjTWj1Mo93ZaiHVRIo270dASMjGQQelaUUfjE6JcGW40RdXMgaBUilNuqDGVYk7iTzyMYyOKs/ZvE3/QX0j/wVyf/ACRR9m8Tf9BfSP8AwVyf/JFAHOWfhTX9Q8a6Z4j17+xrV9NSUImmK7PcGRdv7x3A+UDkDB5rvKxvs3ib/oL6R/4K5P8A5Io+zeJv+gvpH/grk/8AkigDktG+Hd/p3j9tRmu7Z/D9tcXF5p1qpbzI55wofcMbdow+3BOM1p6x4d1+Dxm3iXw7Lpkks9ktnPBqO8ABWLBkZAT35GMcfltfZvE3/QX0j/wVyf8AyRR9m8Tf9BfSP/BXJ/8AJFAHP+HPCGt6dqXiy+1a/tLqfW0h2PCGQIyxspUqRwo3ADkkgZPNQv4E1Jvh14f0aK8totZ0SWC5gmwzwmaPPB4BKkMR0zzXTfZvE3/QX0j/AMFcn/yRR9m8Tf8AQX0j/wAFcn/yRQBzR8NeLdV8X+Hdd1q70hItLkmLWlmZCMPGV3BmGWbJHB2gAdyasP4c8SaDrmp33ha40uS01Sb7TcWeo+YojmIAZ0dAfvYGQR1HWt37N4m/6C+kf+CuT/5Io+zeJv8AoL6R/wCCuT/5IoAytV8M6t4p8G3ela/eWcOoSyCWCawjbZbspVk+8ctgg5PGQe1Yus+F/HPiaHS4tVvdDijsL6C6ZbTzf9I2MCSxYfLxnCgEEkcjFdf9m8Tf9BfSP/BXJ/8AJFH2bxN/0F9I/wDBXJ/8kUAbNcMPBmo/8I/44sPOtfN164uJbU7m2oJIlRd/y8HI5xmug+zeJv8AoL6R/wCCuT/5Io+zeJv+gvpH/grk/wDkigDJ8S+Fb7WfhdL4Yt5bdb1rOGASSMwj3IUycgE4+U9q6+sb7N4m/wCgvpH/AIK5P/kij7N4m/6C+kf+CuT/AOSKAMO/8M69p3i++8ReF7jTy+pRRx31nqG9UZoxhHV0BIOOMYI/pP4c8ManB4mvvE/iG6tZtVubdbSOKzVhDbwqd20FuWJbkk4rV+zeJv8AoL6R/wCCuT/5Io+zeJv+gvpH/grk/wDkigDFeP4kxo0EU/hifqFupFnjYD1MYyCfowFZF98Nb6D4Z2XhrSry2mvbe9S8ee63RxyOJC7cKGIGTgCux+zeJv8AoL6R/wCCuT/5Io+zeJv+gvpH/grk/wDkigDndT0jx74jsJdLv73Q9KsblTHcS2HmzzMh4ZVLhQuRkZwetdfpWmWui6TaaZZJstbWJYolJydoGOT3NUvs3ib/AKC+kf8Agrk/+SKPs3ib/oL6R/4K5P8A5IoA2aKxvs3ib/oL6R/4K5P/AJIo+zeJv+gvpH/grk/+SKANmisb7N4m/wCgvpH/AIK5P/kij7N4m/6C+kf+CuT/AOSKANmisb7N4m/6C+kf+CuT/wCSKPs3ib/oL6R/4K5P/kigDZorG+zeJv8AoL6R/wCCuT/5Io+zeJv+gvpH/grk/wDkigDZorG+zeJv+gvpH/grk/8Akij7N4m/6C+kf+CuT/5IoA2aKxvs3ib/AKC+kf8Agrk/+SKPs3ib/oL6R/4K5P8A5IoA2aKxvs3ib/oL6R/4K5P/AJIo+zeJv+gvpH/grk/+SKANmisb7N4m/wCgvpH/AIK5P/kij7N4m/6C+kf+CuT/AOSKANmisb7N4m/6C+kf+CuT/wCSKPs3ib/oL6R/4K5P/kigDZorG+zeJv8AoL6R/wCCuT/5IqO2udZt/EVtp+oXVhcQ3FpPMDb2jwsrRvEo5MrggiQ9h0FAG7RRRQAUUUUAFFFFABRRRQAUUUUAFFFFABRRRQAUUUUAFFFFABRRRQAUUUUAFFFFABRRRQAUUUUAFFFFAGN4v/5ErXv+wdcf+i2rUnyTGgJAd8HBwcYJ/pWX4v8A+RK17/sHXH/otq1Jf9ZB/vn/ANBagA+zp/el/wC/rf40fZ0/vS/9/W/xrHuv+Er+1S/ZP7F+z7j5fm+bv29s44zUX/FZ/wDUB/8AI1Rz+T+4z9p5P7v+Cbv2dP70v/f1v8aPs6f3pf8Av63+NYX/ABWf/UB/8jVrab/aP2U/2p9l+0bjj7Lu2be33uc9aald7McZ3drMn+zp/el/7+t/jR9nT+9L/wB/W/xrivGmn/2n4v8ADtv/AGTpuqf6Let5GovtjHMHzZ8t+R9O55FYeq6rqngzw9JbW2pX91c6HZRyXKxx2/2UFizKrtMRKQR8o2HIAHBPFUWeo/Z0/vS/9/W/xo+zp/el/wC/rf41w+r61rdpd+Lb+C+drfRo0a2slhj2uWgDEyMRuKgndwy9Dk44qnda14rsdF1SYvdoot4ZLW6v1s2dZGlCsAsDEFCpBGRkc8njAB6J9nT+9L/39b/Gj7On96X/AL+t/jXm/iZ9Ta31XRrnWbmVbS90i4jufKhWQCW6ClThNuFKbhxnoCSMg9H43ieD4carFJcS3DpakNNKFDOcjk7QFz9AKAOl+zp/el/7+t/jR9nT+9L/AN/W/wAa5P4g24vbXQrf7FaX2/Voh9mu2xFJ+7k4Y7W4/wCAmtPwnolxoWlz28/kR+bdSTx21sSYrZGxiNCQOBgnoOScAUAasQtpzIIpzJ5blH2Tk7WHUHng8jipPs6f3pf+/rf415c1odQ8NeB4pNOstRnuNTnkuLW/bbFJMYblpN52PyH3H7p5A6dRp+LPDGkr4DmkuvDOiWl1CY1RLWFJFiBmXIVzGh5yc8DqetAHffZ0/vS/9/W/xo+zp/el/wC/rf41xVzYtovjzTbfw3o+mIv9lXRaAyfZIwDLBlhsjbJ6dvx4qhprT3umf2TcRxxz6h4kuPtEcUhdVjjkMrgMQpKnYEzgff6UAeifZ0/vS/8Af1v8aPs6f3pf+/rf415RNpulWPw3vtct7a3tdfW8vDaXcKBJ5ZxdSCNNwwXycLtOQRxSeJNfRfGs2v8A+mlfD00NsgitZniaNs/ayXClBhXXqRgw+9AHqkotoNnnTmPe4RN85G5j0AyeSfSpPs6f3pf+/rf4155rDf8AEq+Ik0RzNHewS2xH/PZbW2aLHvvC4r0igCFV8u4VVZirISQzE8gj1+tTVE3/AB9x/wC4381qWgAooooAKKKKACiiigAooooAKKKKACiiigAooooAKKKKACiiigAooooAKKKKACiiigAooooAKKKKACiiigAooooAKKKKACiiigAooooAKKKKACiiigAooooAiubq3srd7i6njggTlpJGCqvbkmpa5P4lqW+H2qKOSfKwB3/epWRP4l1Bvg+2rQzPBqUCpC7kDcHWVUYkEdSM/nWMqyjJxfRXOeddQm4vornodFQ2lwLqyguF6Sxq4/EZqatjoTuFFFFABRRRQAUUUUAFFFFABRRRQAUUUUAFFFFABRRRQAUUUUAFFFFABRRRQAUUUUAFFFFABRRRQAUUUUAFFFFABWNc/wDI66X/ANg68/8ARltWzWNc/wDI66X/ANg68/8ARltQBs0UUUAFFFFABRRRQAUUUUAFFFFABRRRQAUUUUAFFFFABRRRQAUUUUAFFFFABRRRQAUUUUAFFFFABRRRQBjeL/8AkSte/wCwdcf+i2rUl/1kH++f/QWrL8X/APIla9/2Drj/ANFtWpL/AKyD/fP/AKC1AEtFYlz4u0O0uZLee+2SxMVdfKc4I+i1F/wm3h3/AKCH/kGT/wCJquSXY2WHrNXUH9x0FFc//wAJt4d/6CH/AJBk/wDia1dO1Oz1W2NxZTebEGK7tpXkfUD1ocWt0TOjUgryi0vQma3ge4juHhjaeJWWOQqCyBsbgD1AOBn1wKqXug6PqdwLi/0mxuphGYvMntkdthyCuSM4OTx71l61e6hceJdP8P6feGx862mvJ7pI1eQIjIgVA4K5JkySQcAdOaz9Wl1vSdb8O2sF3Jqk001yMTOLdXURZHmlFwcHJyE9OO9SZnXpa28ck0iQRLJOQZWCAGTAwNx78cc9qpW/h3Q7SKaK20bT4Y5yDKsdqiiQg5G4Ac4PPNc1P4p/tCztnW1ntrqex1LJW6bEEluyxuMDAf5s4Y4Ixxjcaz9R8Uap/wAIPfQ6fayTy2egpPd3puzHJG7wEgpwS7DG4kleowSeKAO9n02wuhcC4sraUXKLHP5kSt5qjOFbI+YDJwD6mkOl6edM/s02NsbDZ5f2XyV8rZ/d2Yxj2xWP4h1K707wS19azFLlUgxIQGPzOgPXOeCah8bandadHoiW99eWaXeo+RPJZWouJinkTPhUMb5+ZF6KTgH3oA1LHwzoGmHNhoem2h3rJmC0jj+ZQQrcDqAzYPbcfWtWvPr3UPE0XgSfVH1G5tLi1uH8ppbSNZLmDzAqGRGXCEjOQAp6cCu7vLgWllPclSwhjaQqO+BmgCjN4b0W6tntrrS7S6t2na58q5iEqCVs7mAbIBOSeMdT6mpoNF0q1086fb6ZZw2RO420cCrHnOc7QMZyAa4aXVtRtrDwjHNrGqQf2jaTXV3LYWgupXkKo+ApikIQF2AwMAYHYVf1s6pBpOmXtj4n1mMXF5a2rCe0t42ZZJgjMUeAMrYbjgDgceoB2Zt4DdLcmGM3CoY1lKjeFJBKg9cEgHHsKqpo9jHqcd/HAsc0ayqNgCrmRlZ2IHViUXnr19a50a9NoXiyTSdQvNT1C3XTYpkdNPaeQyNLKCW+zxYHCqBwB8vrk1FpHiHUdS0PQCtw32vUNQlV5GhCsIIpJGbKkDGVRU6ZG/15oA6K38NaDaX5v7bRNNhvGYsbiO1RZCx6ncBnJq4thZpay2qWkC28pcyRCMBHLkl8jodxJJ9cnNeeR+JZ72bRBHqGtaZY3OkC6EVhbHUJd+8Ab3aGRiMHqQM1razHq0N54e+yeKNXih1K7W2kV7a2DBRbSybsNBlXLRgkHplhgcAAHTPoumvH5f2KFE86OcrGuwM8e3YWxjdt2JjOfur6Cr9cZB4mk0vXda0zULjU7xbRIPIkj02SY8x5YsYItoJPODj2GKZousX88fge+ubl5X1fTgl0vRWlMAmEm0cA/K44A+/7DAB2Lf8AH3H/ALjfzWpaib/j7j/3G/mtS0AFFFFABRRRQAUUUUAFFFFABRRRQAUUUUAFFFFABRRRQAUUUUAFFFFABRRRQAUUUUAFFFFABRRRQAUUUUAFFFFABRRRQAUUUUAFFFFABRRRQAUUUUAFFFFAHnfxNhurvUvDlnbvJskmkeWNWwrKpjOSO+Oa8y8TamJlOlKrg2t/dyMSeG3sMce20/nXouvT3Fx8VEhMjtBa2WVT+FC3X8Tx+XtXl2rRk+LbxJFK7r1uCMcF+D+VeRindtrq7fkeDjZXlJrq7fckew/Ca7mvPC93JNLI+L5wgdidq7EwB6DrxXeV4r4F8UvoPgXX/JhRri1dJ4zIflYybUAx14xn39q9W8N6o2teHLDUZFCyTwhpAowN3Rse2Qa7cLUThGPW36npYOrGVOML62/U1KKKK6jsCiiigAooooAKKKKACiiigAooooAKKKKACiiigAooooAKKKKACiiigAooooAKKKKACiiigAooooAKKKKACsa5/wCR10v/ALB15/6Mtq2axrn/AJHXS/8AsHXn/oy2oA2aKKKACiiigAooooAKKKKACiiigAooooAKKKKACiiigAooooAKKKKACiiigAooooAKKK5zxf4hudD01zp0UU18I2n2yglEiTG5mwQe4Uc9WB6A0AdHRXFzeML2yWTUrmK3fS2lvYYoo0YTK1sJCSzFiCGEMnAUYyvJ5pzeItatpzpdyLBtTm+ymGWOJxEgmMgIZS5LFfJc8MN2V+7zQB2VFcUfE+szo1rapYrfWsd3JctJG5jk8iQIqoAwK785yS23phutSx+K725uReQR240lLy2s3jdG85mnSNg4bdgAGZBt2nOGORxQBr+L/wDkSte/7B1x/wCi2rUl/wBZB/vn/wBBasLxzf2dl4M1hLu7ggaexnjiEsgUyMY2wq5PJ9hW7L/rIP8AfP8A6C1AEtFFFABRRRQBlavoMGrTWtz9oubO9tS3kXVqyiRA2Ny/MCpU4GQwI4HpTIfD0aXdjd3F/fXdzZvJIkk7rly67TkKoAAHQKAKs6prVho0cT305QzPsijjjaSSRsZwqICzHHPANVYfE2nXN3Y28H2hnvHkjXdC0ZjZF3MHV8Mpx7d6AK6eDdOjEYE118i3qjLL/wAvUnmSfw9j930HXNVr3wFYXlnJaJqGo2sE9ilhcrbyIPtEaKVUtlDhgCeVxnocjiugvb37DE8z28zwxwySvIm3ChRnGCQcnnGARwckcZry63bQ+GX15klNqlmbwoAN+wJvxjOM498Z70AJquiQatoMmkSzTxQuiL5kRXeu0ggjIIzkDqKqx+GmM9lNfa1qWoPZ3QuoTcCBdreXJHj93EuQRIT65A56g6N1qlpZaX/aN1IYrbarFipJG4gDgZ7kVHq2t2OiRW8l80w+0TeRCkFvJO7vtZsBY1Zvuox6dqAIPEegDxHppsJNSvbOBj+8+y+VmQcEAl0bHIzxitC2t2hskt57iW7YLtaWcJuk92Cqq/kBWSfGGi/Y4bpJ7iWOUuoENnNI6lDhw6KhZME87gMVr2t1Be2kN3azJNbzIJI5EOVZSMgg+mKAOeTwdstNIii1m+tptJjkgtprZIs+U2AFYSI4JCqozxnBPGcVpXGhre6daWl7fXVy1tcxXInfy1d3jkDru2oFxkAcAce/NVT4x0lbOxuX+2bb8SNapFZyzvKiH74WJWIUgqwJxww6dKuQeIdKudHuNWivUNlbBzPIQQYtgywZSNykDqCM0ASppcCa7Nq4eT7RLbJbMuRsCozsCBjOcue/pWbpXhiPStThminaS2treWOBZOWDzTeZISQAMcIB7A1di8Q6VPplhqMV2HtNQaNLaQI3zs/3RjGR+OMd8VP/AGlC+oPZQpJNNEyCfYABCGVirMSRn7uMLk/MMjBzQBhw+CYbIaf/AGdrOp2L2VmLJHi8hi8eQfm3xMM5HUAVrXGjR3Z0prm5uJZdNnFwkp2Ayv5Tx5cBQORIx+UDnHbiqdp4x0i+Uvarqc0e1mEiaTdFGC5ztby8N0OME5PAzUcPjjQ52uQjaiotQ32hpNKukWHanmEOzRgKdpBweTkY6igDTg0i3t9Q1G9R5TJf7PNBIwNi7Rt49PXNUdP8MQadLoyx3EkltpFj9kto5AC2cKvmMwwCdqY4A+83qMaLarZJJYI02G1AlbYbW/eEIX9OPlUnnHT1o0vUodWshdQK6De8TxyABkdGKspwSMggjrQBO3/H3H/uN/NalqJv+PuP/cb+a1LQAUUUUAFFFFABRRRQAUUUUAFFFFABRRRQAUUUUAFFFFABRRRQAUUUUAFFFFABRRRQAUUUUAFFFFABRRRQAUUUUAFFFFABRRRQAUUUUAFFFFABRRRQAVFc3EVpay3MzbYoUMjtjOFAyT+VS1Q13H/CP6lu6fZZc/8AfBpN2TYpOybPMfDmtt4h8Qa9qLE7HkjEQKgERjeEBx3wOayW0F9U8d3tykqKtncwSOjD7ylc8e/yj86l+HtjdWY1BriB41lWFkZhwwwx4PfgiuzSCKOWSVIkWSXBkYDBbAwMnvxXmQi6kE5d7nj04OrTi597nm9xp0k3jybS4EMVnM8ZliUFUaNQrdB24wPevTfhrrVld+Ho9JikP2uwBEqEY4Z2II9ff0rMGmMPEp1XzF2G0+z7Mc537s1l/Cu3ltvF2rLLGyeZAzKGGDgS4qqSdOqvNsqhF0qyt9pv7j12iiivSPXCuOtNeuLn4q32kCZ/slvp4zEcbTLlG3D8Hx+FdjXh/hfVG0z4iJqNxbuYdXupoYmBH8ci4P0Brnr1OVwXn/X5nJiavJKC7vX+vme4UUUV0HWFFFFABRRRQAUUUUAFFFFABRRRQAUUUUAFFFFABRXE6Zruo3HxW1XSpLgnTorYeVDtGA4EZJz1z87fn7CurstTs9Re6S0mEjWsxgmABG1wBkc9etRCopbd2vuM4VYz27tfcW6qanqdro+mz397KI7eFdzN+gA9STxT/wC0LP7aLL7XB9qIJ8jzBv4AP3evQj8680+IniC4vdbg8Lx2WLT7RAJ53BO5mIYAY4Axnr1wemOZq1VCF/6uRXrKnBy67fM1bDxdZ2njzW49Q1Ix2NxFbSWbzOREB5akgZ4UneD+HNXJfid4dV4fs8lxdxvnzJIYuIQCBucNggfMOcGuVsfCaPpZt9Zk+1TP5eSpwEEa7FCkYPCgCptZ0qwsvDuptaWcMLNbMCY0AJAFcqqVlFvTucaq14xb0W78+9j1asLxpcLbeC9Xds/PbNCAO7P8g/VhXNS+PLTT/FNss2qRNpB0lZGEZV8T7/Uc7sDGK52817XPEmrXdqhNzol1cgQSKm1IkilDZ6dSB3POfbFa1MRHlcVvt/X3m1XFQcXGOrd1+G/pqd34K8Q6ZqHhnSoIrxDcJCls0bnaxkSMFgAfvcc5Ga6mvJNO8Mvb+N7O4hAi06KZZ41jOMSsVVl65wQufTtXrdXQlKUbSW2hphpzlC01toFFFFbnSFY1z/yOul/9g68/9GW1bNY1z/yOul/9g68/9GW1AGzRRRQAUUUUAFFFFABRRRQAUUUUAFFFFABRRRQAUUUUAFFFFABRRRQAUUUUAFFFcw/iHxBcnfpfhOaS3/hkv7tbVnHqEwzD/gQU+1AHT1j6/wCFtG8S2skOp2FvM7RmNZ2hRpYwf7rMDin6Rq11fvJBfaPeabcxgMVl2yRuPVJEJB+hwfatWgDnofBumQzN80zWX77yrA7RBCZQRIUAUHnLcEkDc2AM0ieD7VbeRZNQv5rljDsvJGTzYhCSYwuEC4BZuoOdzZzmuiooA5yXwZZyWkcKX1/DIFnSa4jdBJOszbpQ5KkfMwByoUr/AAkCpz4Vsv7TW7Sa4jhEsc7WaFRC8sahEcjbuyAqcBgPkXjityigDG8X/wDIla9/2Drj/wBFtWpL/rIP98/+gtWX4v8A+RK17/sHXH/otq1J8gxuASEfJwMnGCP60AZFz4a+03Us/wDbesxeYxby4rvai57AY4FQ/wDCJ/8AUwa9/wCBv/1q3ftCf3Zf+/Tf4UfaE/uy/wDfpv8ACo9nHt/X3nUsbXSspfgv/kTC/wCET/6mDXv/AAN/+tWtpth/Z1qYPtd1dfMW8y6k3v8ATOOlT/aE/uy/9+m/wo+0J/dl/wC/Tf4U1CKd0RUxNWpHlm7r0X6JHN66k+n+L9K15rS5u7GK0uLSUW0TSvAztGwcIoLEERlTtBIyO2aqataweKtb8OyTaVdSadHNc+al3asisPK4LowyFJ6BwMkdOldf9oT+7L/36b/Cj7Qn92X/AL9N/hVGB5ta6VqMdtp8P2G7CW9rrdugMTfIhnAgXp0KKNvqBxWdrWjyPoN/FqOh6he3knh+GHSjDavIYJBCwdAQP3T7sE5xuGBzjFetfaE/uy/9+m/wo+0J/dl/79N/hQBzfiyCeT4fTRRW88syxwHyoomdztdCcKASTgHgCqWuXDeJ7jw+NLGsWht9WDy3B06SF4lNtcDcBPFtIyQpOCBuA4JFdj9oT+7L/wB+m/wo+0J/dl/79N/hQBx+qvJ4R0yHTNJi1Ke51GeWSbUfscl15JY5eVxEhyxzhVAAz6AGt3TtPto/CMOm6Z58VuLPyIDOjJIo24BYMAwPc5ANaf2hP7sv/fpv8KPtCf3Zf+/Tf4UAef2N4LSHwRfPZ3rQWmnz2twLWzluDBKqxoUYRqxGGRh/wE1T1Kx1rVZNT+xaPMsGvalBmG63Qj7NDGpkaUhW8vzCgQAjJB6V6Z9oT+7L/wB+m/wo+0J/dl/79N/hQB5xaWOtW+3SrvSniS38QQX0H2YvNEsErs7APsX7r788DAZe2Cblrbz6hNoetRQySi98Qy3juikhIBbTwxMT2Uosftl/eu7+0J/dk/79N/hTUlhijWOON0RQFVVhYAAdABigDhvALTWltY2Vze+IUmUSBrK40ox2ycsf9aYB25GZOTxz0q3JY3Z0n4goLWffdTym3XyzmYGyhUFP73zAjjuCK7D7Qn92X/v03+FH2hP7sv8A36b/AAoA4mHQ9TtdW8HTy6lql9FDI/mxTwwhLfNrIASY4lI5IX5j39a2PB6l7TU71f8AUXupTzwe8eQgYezFCw9Q2a3vtCf3Zf8Av03+FH2hP7sv/fpv8KABv+PuP/cb+a1LUKt5lwrKrBVQgllI5JHr9KmoAKKKKACiiigAooooAKKKKACiiigAooooAKKKKACiiigAooooAKKKKACiiigAooooAKKKKACiiigAooooAKKKKACiiigAooooAKKKKACiiigAoorn/HFzJaeCtWmilaJxAQHU4IyQP61MpcsXLsTOXLFy7HQVynxF1WbSPBl3LBs3zEQfMM8NwfxxmrvgqRpfBWkO7Fm+zKMk5PHFZ/xBRJdN0qCRFeOXU4lZWGQw2ucEfhWdSTdJtdV+ZjVk5UHJaXX52/zMvSgBpFkB08iP/wBBFW6RVCKFUAKBgAdhS1ilZWMErKwVBo8sdv4+3yuqK+mMu5jgZEq4/nU9cJ8QUd7qyjjUs80bxqB3O9DUVJ8i5uxnVn7OPP2Z7kCCAQcg9CKK5rTb1LX4Z2t4CwWDSVfKHkbYu3vxXP8Awp13UNVtr+zvLhp4rNIBCW5YBg2QT1PK966fbLmjHujs9vHnjB7yVz0C5uI7S1muZm2xRIZHPooGTXh97C1n4Q0XWVyLyydZogfu5Zw3I79BXqfjrUIdP8Gam0sqo08DW8QJ5Z3UgAe+Mn8K5yTTLa70yGzuo98SBPlzjlcY/lWOIXM+Vdv1/wCAc+KXPLlXb9f+AaPgPxsniLTZhfzxJfQyEuuNoCM2F56Hk4/L1rtK+dvGUCaRrc1vZfube9t0MsSABOH6AD3QH65r6JqsNVlK8JborB1pTvCe8evcKKKK6jtCiiigAooooAKKKKACiiigAooooAKKK5P4g6na23hC/tjcIJ7jbbIgOTubnBx0+XJ5qZyUIuTIqTUIuT6HGrrcGifEK/1idTJbNPdwuYyM/IiEAepyuK0fAHifTzdeJbq6mSzgnujeR/aHCEozMO/HBAHHc4rOt/BdodJsLS7di9tIZGMRwsjEjOc9sAD8Ksv4P0iT7GrRSGK1DKkZfKsGJPzdzyT3rz4+1TTXr955cPbRkpK3V283ucleyX2p3zeNraL7Oy3gkKFwwRVC4OeM8gjpXfOyT+MdflGGUSQKp69Ih/jUkljbnT5LNLeJYGQqIlQBefasjwZYNYeG4FlgaGeRmeRXBDZyQMj6AURg4yt31fr/AEwhBwlbe+r9f6Z0FRXNvHd2sttKCY5UKMAccEYNS0VsdG5z+m+ENM062aPyUuJSzMs0qAsM9B+FXPDunS6VoVtZzbPNjDbthyMlif61qUVKhGOyIjTjF3iiW1/4/bb/AK7J/wChCuyrjbX/AI/bb/rsn/oQrsq6aWzOujswooorU3Csa5/5HXS/+wdef+jLatmsa5/5HXS/+wdef+jLagDZooooAKKKKACiiigAooooAKKKKACiiigAooooAKKKKACiiigAooooAKKKKACuHttJvfF1zqGo3PiDV7G3ivZ7S1ttOnEKosLmMsxwSzFkY88AYGK7ivMdU03wu1jeapD4dmub241aWyhgW/liFzceayu2Q2EG4OScdAeKAOu8J3V89tqOn6hdG7uNMvWtPtLKFaVdiSIzAcbtsig46kZroK5bwHHZwaVfW9tpB0q5hvWS9tvtDTgTbE+YOeWBQxkdPpXU0AFFFFABRRRQBjeL/wDkSte/7B1x/wCi2rZrG8X/APIla9/2Drj/ANFtWzQAUUUUAFFFFABRRRQAUUUUAFFFFABRRRQAUUUUAFFFFABRRRQAUUUUAFFFFABRRRQAUUUUAFFFFABRRRQAUUUUAFFFFABRRRQAUUUUAFFFFABRRRQAUUUUAFFFFABRRRQAUUUUAFFFFABRRRQAUUUUAFFFFABRXN+M/Ecnhiw0+8UJ5Ml/HDcFlLEREMWK4PXC8V0gORkVKknJx6olTTk4rdfqFFFFUUFct8Q/m8HzJ/fngX/yKtdTXK/EDnw5Ev8Aevbcf+RBWdb+GzKv/Cl6FLwBrsD6bpWheW/njTRdeZxt2+YUx656GuU8RJLefGJTyY4Nq56hQIg/4ctVL4c6hdx+ObK0mjVWitpLCTJyeC8gxjjOVx+FdBocSm51i8BYtc6jOxyegDkACuFS9rTiuz/JI82M3WpQi+j/ACSNiiiitjpCue8Q6Vd32saJc28avHbTkzZYDCkqc89ehroaKUoqSsyZwU1ZmdFcNF8FZIwfnCtZ/TM5j/ka5TwZNLpmgeNhEzxyxW6qrAkMpHmLkHsRmt2W6ih+GP2eR8PPq5ijGD8xFxuI/JTWN4suDpMmpx2qRxjUbNBJtUDJEvzH6kN1rCo7csuy/NM5qrtyzvtG33pnQ+Iw2u+CvCFrNO7SXTxSSSH5mbbC24/Xn9a164Lw1r1xqt9o+nSlDDYI4iwuCAYwDn15/nXe1pTkp+8vL8Ea0pqpea8l9yOf8WaNb6jpkl1JuE1pDI8ZHf5eh/KvTtOuftmmWl1/z2hST8wD/WuH1Jd+l3a+sLj/AMdNdX4WfzPCWjN62UP/AKAK2oq035o6KCSqO3Vfqa1FFFdR2BRRRQAUUUUAFFFFABRRRQAUUVy3irxlbaJpVy9g8N5qEcyW6wK27bI+SAwHPRW474xUzmoK8iJzjCPNJnTTSCGCSUkAIpY59hXhHhnTNS1LxAur6vC88dwpuBLIQys/8JwOmMnA7duldhe+OIPFHgvX47eExPBaQhmzwzScMAMcYOR71Z060+waZbWm7d5MSoWxjOB1rjquNWUWnotThrONecWnotfxLVFFFUWFFFFABRRRQAUUUUAS2v8Ax+23/XZP/QhXZVxtr/x+23/XZP8A0IV2Vb0tmb0dmFFFFam4VjXP/I66X/2Drz/0ZbVs1jXP/I66X/2Drz/0ZbUAbNFFFABRRRQAUUUUAFFFFABRRRQAUUUUAFFFFABRRRQAUUUUAFFFFABRRRQAV5vJHbWHiqW9XQvF1xHb3ctxFbJFE1oJ2DK0yDcGOQzEZOPmJwCa9IrmJrjxpLPI9hB4cks2YmCR7qbc0eflJwhGcY6HFAFnwrJp9zaX97YPcl7q9kluUuk2SRS4VSjLgY2qqge2Dk5zW9WJ4c0240yO7OoXVvNqV/cNeXAgBVFO1UAUE52hUUZPU5PfFX73VtN0x4kv9QtLRpiREJ5ljLkYztyeeo6etAFyiqsepWE1/LYRXts95Cu6S3WVTIg45K5yByOvrUUeuaTNYzXsWqWT2kBKyzrcIY4yOzNnA6jrQBfoqjLrelQWtvdS6nZR29yQIJXuFCSk9ApzhvwqRtSsE1BNPe9tlvZF3pbGVRIy88hc5I4PPtQBQ8X/APIla9/2Drj/ANFtWzWN4v8A+RK17/sHXH/otq2aACiiigAooooAKKKKACiiigAooooAKKKKACiiigAooooAKKKKACiiigAooooAKKKKACiiigAooooAKKKKACiiigAooooAKKKKACiiigAooooAKKKKACiiigAooooAKKKKACiiigAooooAKKKKACiiigAooooA80+M90F0DTrTBzJdGXPoFUj/ANnFekRHdCh9VBrzb4uW32tdNiBwVgupen9wRt/SvQ9PkWbTbWVTlXhRgfUECuen/Gn8jkpN/WKnyLNFFFdB1kN1dQ2VnPd3D7III2kkbBO1VGScDnoK848TeNtI124s9IsJWmb7XbTLKB8rjOSPUEfLnPfI7V0/j7V7XSPB1+bktuu4ntYlUZJd1IH0AGSfp68V5R4F0WV7mDVwUMSmSNgeoOBgj8z+VcWJqy51Tj13PPxdaftFRh13+8v6eU8M+KotYv4ZUSXVZl+UZJjZGCsB6Zc10Xh7nTHf+/czt/5FasH4jj/iUWjek/8A7Ka1/CAP/CLWRYkswZiT1OWJrCGlRw+f3nNT92q6a2Wv3m5RRRXQdYUUUUAcfcRPe6TpOnxMof8Atu6mIY/wo2T/ADq14l8PTa3qumEAi1TcLhg2MLkED15wazvDt00/jG+tHA22j3TR/wDApVz/ACrt6whFTi7/ANWOWnCNSLv/AFY4vwr4bn07Xr29dPLt1eWCFGzuI3AhhnqMZ5rtKKK1hBQVkbU6apx5UQ3YzZzg9DG38q2Ph/dte+A9JlZQpWIxYHojFAfyWswgMpUgEHgg96r/AAt1yK50ufQ/KWJ9OchDvz5is7np7VcJWqq/VM0pyUayT6p/5noFFFFdZ3BVaDULS5vrqyhnV7m12efGM5TcMrn6irNebaBqLxfFfVgyuYdReSBcDgPAq8n2xuH4is6lTkcV3ZlVq8jiu7sek0Vm3+t2enappunXG8TagzrCQuVBUZOT26gfjWlVpp6I0Uk20ugUU13WNdzsFXIGScdeBVTSdVs9b0yLULGQyW0udrFSp4JB4PuDRdXsF1exdooopjPNviR4t1HQ9Us7LS7gF57aVJIl5YM2AjDHIYHkVw+mWj2et6bbTmR5r14L2QS8ncBLnOe+Tnnnmutj05bvx1rmsTOH2zm2SNkzjaEw2fbGK1ZLC1lvYrx4Ea5iBCS4+YA54/U/nXmyhKpJyb66f15nkThKrNzb66Ly/wCDY43xHpK6KYX02RoLe/lS3uYByr/NvB59CK7qqOp6XFqiWyyuyi3uEnXbjkrng+3NXquEOWTtsaQp8snbYKKKKs1CiiigAooooAKKKKAJbX/j9tv+uyf+hCuyrjbX/j9tv+uyf+hCuyrelszejswooorU3Csa5/5HXS/+wdef+jLatmsa5/5HXS/+wdef+jLagDZooooAKKKKACiiigAooooAKKKKACiiigAooooAKKKKACiiigAooooAKKKKACuan8CaI8rSWn2/TS5y66bfzWyMfdEYL+OK6WuM8UHxF/bE9tpkV60GoWcVrBcQMAlpJ5redI2T8p8tlKnB5XFAHQaR4e0vQhJ/Z9qEklx5szu0ksmOm6RiWb8TWZ42Yz6DcafG2pLNcQuqCys2mEvykeW52MEVsjJyh9GHNTeFLS7sIdTs53vHtob5lsmvJGkkMOxD95slhvMmCe2K6CgDzIaVql1p66VDYXFtqcMmpSyzGNhFtmWURhZSMNkyRcAkjy+cYFWHhmubwarb6VfRadb/ANnLLbNaOsjGJpS22MjLbPMiOQDnZxnAr0WigDzU2txbxzXdxpV7Na3tvqUdvbpau7oZpgyqyAZTzAM5bAHRsVYh06/gu/7OntbmW+k1Kxu1uxCzRiKKGFZCZMbQf3cq7Scnf0+Y16FRQBzvjlLx/BmsG0ngiUWM5lEsBkLr5bZCkOu0+5z9K6Ksbxf/AMiVr3/YOuP/AEW1bNABRRRQAUUUUAFFFFABRRRQAUUUUAFFFFABRRRQAUUUUAFFFFABRRRQAUUUUAFFFFABRRRQAUUUUAFFFFABRRRQAUUUUAFFFFABRRRQAUUUUAFFFFABRRRQAUUUUAFFFFABRRRQAUUUUAFFFFABRRRQAUUUUAebfEC4afxDHa+XiO00m4neTd/z0+XGPbZ+vtXZeFbiO78J6TNE25TaRrn3CgEfgQRXnup232v4j+KLZ9wSazjjLDsDEg4/Wu18AgDwLpAH/PHP/jxrkoturJ+v4M4KEm68n6/g0jpKKKK6zvOE+J1mNSs9FsCcLNfjcQcHaEbOPfGap6NpMOi6eLOB2dA7NluvJrV8aNv1zw7B/wBNJ5f++UA/9mqKuOUV7Ry6/wDAOCcU60pddF+BzXjKD7TbaVEG2l9RiTOM4yG5rX0exbTNItrJnDtEm0sOhNXSAeoBxzS1KglJyIVNKbn3CiiiqNAooooAoWejWNhe3F5BDi4uGZnkJyfmIJA9sjNX6KKEkthJJaIKKKKBhXkNwmp6D4gu7yAPbzReY6OcghHZoww9/mOK9ernvG6BvCd43dTGf/H1FY14c0b9jmxNPmjzX1Wp3PgzVU1XwtYObpZ7mO3jW4+fc4baPvd8nrzW/XmPw302bw/4jv8ATGmEkc9otxwP7rlR+hr06uyhJypq+56GGm50k5brT7jH8QeJbDw1DBLf+aRO5RBEm45ClvX2x9SK8f0zxFPo66d4hvYGmma5u5Sv3PMaRRz04GT+ldT8RmtvEOvad4fguQtxCkk0jLgiNiBtBwevByPQis3xPoJuvDUK+aAdPhLHC/f2p2/ECuSvKcpNx+zt6nDiZ1Jzk47R29dL/cX/AB5r9tH4y8LMrFjaSCaZF5KiQpgfXCnj/GvUq8DGnj/hGbjxLfs8t5O8cgB5EaiVQNv4cew4r3e2uI7u1huYSTFMiyISMZBGRW2Gm5Sk31s/0N8JNznOUutn+hxXxUluX8N22m2qBpL+7SIg9cDLcenIHPpml+FMdxb+Fbi0uciS3vZI9pOdvyqSPzJqbxrIp1vw5AWG4zTSBc8nEZH9al8BnEWuL6am5/ONKEv9o5vl+FwS/wBr5vl+FzrqK4TxR8StP0u3vrTTZPN1e3k8sRSwsUyCN2SMcAbu/UVreJfE0Nj4ZurizkhlvmjjWKDzBuDSkBSR17k++K29tDWz2Oj6xT1s9jmNAc3FncXhOTd3c85/Fzj9AK1aqaZZ/wBn6Xa2mQTDEqEjuQOT+dW654qyVzlgmoq4UUUUygooooAKKKKACiiigAooooAltf8Aj9tv+uyf+hCuyrjbX/j9tv8Arsn/AKEK7Kt6WzN6OzCiiitTcKxrn/kddL/7B15/6Mtq2axrn/kddL/7B15/6MtqANmiiigAooooAKKKKACiiigAooooAKKKKACiiigAooooAKKKKACiiigAooooAK82+Ignh1i0vLmHUZbKE2b2ptY5ZEilW6Vpy6x55MWMEjHDAcnn0mvNviJq02laxaTXepXlhYRGze3aGRo4pZPtSicSFeuIsEKxwQWODjgA6fwi91cQapfTQ3MFveX7zWkVypWRYtiLkqeVy6uwBwcMOK6Kud8I302p2+qX2+eSxnv3aweYMC0OxBkBuQu8SY9sY4roqACiiigAooooAxvF/wDyJWvf9g64/wDRbVs1jeL/APkSte/7B1x/6LatmgAooooAKKKKACiiigAooooAKKKKACiiigAooooAKKKKACiiigAooooAKKKKACiiigAooooAKKKKACiiigAooooAKKKKACiiigAooooAKKKKACiiigAooooAKKKKACiiigAooooAKKKKACiiigAooooAKKKKAPPrj5vG3iD2FuP/ACH/APXqbwl4n0rS/BujW1zcj7Qwji8pBlgZHYKSOw4P+SKrRMZvE/iG4JyTdrF+CRqP615JJqcvl2n2ZSJY40ORztMbOQcfQ5rzZ1nSfMvP8zyKmIdGXMut/wAz6forG8NeJLDxNpoubKXe0YVZlKlSjlQSMH69fatmvRjJSV0erGSkuaOxwXie6Sbx/ptmAd1vYyyse3zsAB9fl/UVNVCWOK48da7eFQZIjFbo3oPLUsPzNX6473bfmcKbcpPzf+X6BRRRTKCiiigAooooAKKKKACiiigApGVXUqwBB6gilooAi0Q7PiDH/wBNNMkX8pEP9a7yvP7Q7PHmiEf8tIblD9Nqn+legVtQ2fr/AJG2H2a8/wDI8S0vT5f+E6udRWORopbi73yYyqsJCMe1dnNEk8EkMgykilWHqCMGsnwu8k2hpcyhVe4llmIU8Dc5NbNctOKUfU46MUoeuv3mXcaUsXhifS7VTJi2eKIORknacZPTrXPWvjzxLf6fpNjplssDW4AE3J+0GJDlW4xhuOPXv6drVawsLfTbNLS1QpCmdqkk4ySep+tEoSv7rsEqcm1yuysY2nNrOt+IJNa1mBoI4wy2kDkExbsA44B6Dv6msiDxFqPhXxjrGoW9v9osDJGl3HkDOV+Ug9iDn25x3rua5t/Dz313r0d3ujtr14TG6EbjsGSfbnjmpnCStyvW97kTpzSXI9b3v8itZaR/bNpqmq3NiLfVL5rjYZC2EDggfhz1xVnRPCNpYR2lxdxpLqEW4tIpJBYkkHnqR0zXRqoVQoGABgUtUqUVZvctUYKzerCiiitDYKKKKACiiigAooooAKKKKACiiigCW1/4/bb/AK7J/wChCuyrjbX/AI/bb/rsn/oQrsq3pbM3o7MKKKK1NwrGuf8AkddL/wCwdef+jLatmsa5/wCR10v/ALB15/6MtqANmiiigAooooAKKKKACiiigAooooAKKKKACiiigAooooAKKKKACiiigAooooAK81/tzXNPuLa2bRvEM32bXLya4kig3pLbM1x5aqS3zD54iB0G32r0quQf4kaJHcJbvZ64s7qWSJtHuQzAdSBsyQMj86AN/R9UOr2j3B0++sdshTy72Ly3PAOQMnjnr7GtCsrQPENj4lsHvdP+0eSkrQnz4HiO5cZ4YA8Zxn1BHatWgAooooAKKKKAMbxf/wAiVr3/AGDrj/0W1bNY3i//AJErXv8AsHXH/otq2aACiiigAooooAKKKKACiiigAooooAKKKKACiiigAooooAKKKKACiiigAooooAKKKKACiiigAooooAKKKKACiiigAooooAKKKKACiiigAooooAKKKKACiiigAooooAKKKKACiiigAooooAKKKKACiiigAoorG1fxLZaNqVnY3TeW13HK6ysQETy1ydxJ4zSlJRV2TKSiryOM0BjPZT3rktJd3U0zN65cgfoBXmvg+2ju/EUUEq5ikilRxnGQUIP869I8Ljb4Y0/3iB/M5rmvDmlyv4uvr6MIILe7uI2GeeemBXlTjzch4tSDk6b/AK7m58HLmK3g1uKVxGsZjl3OcDaN4Jz6DFdv4W8V2/imO+e3gaJbWcxAlwwcdmGPX0/WuB1OaXT9W1ZUVUtbvQp0YAD5nG79fmH51F4Fa+8Nf2nb3Ijjt59Le9AP3ldAB+H3jx9OnNbUqrpuNPor3/Q3oVpUnGl0V7/obGjS/azqOoZyt5eyyofVAdq/oorUrO0GH7PoGnxEYIt0z9SMmtGrj8KNIfCrhRRRTLCiiigAooooAKKKKACiiigAooooAzzcw2vjbw480ioHeeNc92ZAAPxJA/Gm6j8TmTw3aana20SyPfvbzQu24iNRkkYxzgpz05rN8aXEthpdrf24xcWt0kkb7N2wjPJ9s4/SuUs/Dd/d2TsLZjCLTzYATjMrqoOP++T1rCdWcW4w/r+rHLUrVIScKfr+X+X4nd+HIjD4b09D18hW/MZ/rWpVewiaDTraJ12skSKR6EACrFbRVkkdEFaKQUUUUygooooAKKKKACiiigAooooAKKKKACiiigAooooAKKKKAJbX/j9tv+uyf+hCuyrjbX/j9tv+uyf+hCuyrelszejswooorU3Csa5/5HXS/wDsHXn/AKMtq2axrn/kddL/AOwdef8Aoy2oA2aKKKACiiigAooooAKKKKACiiigAooooAKKKKACiiigAooooAKKKKACiiigAriPFV02i+J7TULLWtPtb6+hjsfsd9C8iygSHYy+WdyHdJgk/Kdw6YFdvXB+L9H1HUtekbRJLGe8EFk1za3UjRlY4rlpY2VgrfeKSKRjsD2wQDc8J2htbfUmm1CK9vp755LxoYzGkcu1F2KpJIAVV6k5696k8UX+o6Vpc2o2c9kkdvGztFcQu7TvxtjQqw2lj8o4bkjiovCdvLAmrNeXNvLqU1+Zb1Lbd5cEhij2xqWAJxGIznAySelWdZ8PjWLyxuTqV7aNZszxpAIihcjG4iRGBYDOD2yaAMNvF99bD+0bqCAaZJcXdqkKKfOR7dZWYs+7aQfIkGAoxleTSnxLrVu32C6WwbUbhbR7eSOJxEnnOysGUuS2zYTkFd2QMLWqnhKxF600s9zPAWlkW0kK+UkkoIkcAKDlgz5ycfO2AM1FH4OtEtZI3v7+adhAsd1I6ebCIWLRBcIBwSx+YEnJ3ZoAz/8AhJdauG+wWq2C6hbrdvcSSROYn8l1VQqhwV37wckttwRhqWLxbe3brf28VuulJc2dpJE6MZma4WJgwbdgBftEfG05w3I4q/J4OtHtYo0v7+GdROsl1G6ebMJmDShsoR8xAPygEYG3FTHwpY/b0uI5biKBXilazRl8mSSIARuQV3ZUKnRgPkXIOKAIvHN/Z2XgzWEu7uCBp7GeOISyBTIxjbCrk8n2FdFWN4v/AORK17/sHXH/AKLatmgAooooAKKKKACiiigAooooAKKKKACiiigAooooAKKKKACiiigAooooAKKKKACiiigAooooAKKKKACiiigAooooAKKKKACiiigAooooAKKKKACiiigAooooAKKKKACiiigAooooAKKKKACiiigAooooAK8Z+MpaTXdOiUE7bfoOuWY4/wDQa9d1G9TTdMu76RWaO2heZlXqQqkkD8q8tt7238ca7PrctuyW9t5UVtG3DKyZfcSDycsfwIrkxdpR9n1ZxY604eyT1f6GnoEZi8PachBBFumQe3yioNE064sLvVXmVQlxdtLGQc5U/wAq2KKjlWnkZqC08ji/Hdy9tcWCooP2mKaA57AlKl8cw3EFpDqVvyIY5LeVf9iVdufw/mRW7rGiWuspAJ8rJBIHjdeo5GR9Dir09vDdQNDPEksT8MjjIP4Vm6bbl5mUqTk5+drBbrstol9EA/SpKOgorY3CiiigYUUUUAFFFFABRRRQAUUUUAFFFFAFPVdNi1bTZbGdnWOXGSmM8EHv9KuUUUWV7isr3CiiigYUUUUAFFFFABRRRQAUUUUAFFFFABRRRQAUUUUAFFFFABRRRQBLa/8AH7bf9dk/9CFdlXG2v/H7bf8AXZP/AEIV2Vb0tmb0dmFFFFam4VjXP/I66X/2Drz/ANGW1bNY1z/yOul/9g68/wDRltQBs0UUUAFFFFABRRRQAUUUUAFFFFABRRRQAUUUUAFFFFABRRRQAUUUUAFFFFABXBSeE9Ku/H2pIbzXUuZLKK4kaPVpo1AaWbCqFYHAO7jO1eMAZOe9rz/x3NZPrdlCNOupLuDyBNfWuoPZyW8NxOIVAZOXywJ2nj5Scg0Ab/hOLT7SPVrGwgmT7JftFPJNcNM80hjjbeXYkk7WUcnjbjtXQ1geFFsLW21HTNPszbJp968Em6UyNK5VJPMZjySRIM5yc9636ACiiigAooooAxvF/wDyJWvf9g64/wDRbVs1jeL/APkSte/7B1x/6LatmgAooooAKKKKACiiigAooooAKKKKACiiigAooooAKKKKACiiigAooooAKKKKACiiigAooooAKKKKACiiigAooooAKKKKACiiigAooooAKKKKACiiigAooooAKKKKACiiigAooooAKKKKACiiigAorJ8R65beHtGlv7pmCghE2rk7j0rzzRNR1CD4O6g0d3Ml3Hc+RFIHO5N7R8A9R98/nWM6yjLl8mzCpiIwly+Tf3f5na+I9VtLv4f6pf2cyT281pKiSJ0YkFP5nFc3ouk2+j6eLe3QqGO9wWJ+YgA9fpXIQtq+jWcPhe8laeC+eF44k5WLEu5x9OMn616BXMp+0lzNapHJGp7WXM1ZpW/zCiiirNAooooAKKKKACiiigAooooAKKKKACiiigAooooAKKKKACiiigAooooAKKKKACiiigAooooAKKKKACiiigAooooAKKKKACiiigAooooAltf+P22/67J/6EK7KuNtf+P22/67J/6EK7Kt6WzN6OzCiiitTcKxrn/kddL/AOwdef8Aoy2rZrGuf+R10v8A7B15/wCjLagDZooooAKKKKACiiigAooooAKKKKACiiigAooooAKKKKACiiigAooooAKKKKACvNPEbJ4kkjml8LeM7K4TYPOsxbIzBHEiBg0jKQHAYZHBz6mvS6831jRoLDUk0vTpfGGq35hE7xQa5JGsUZJUMzvIAMkMABknafSgDqPB0MUGjSJHp2qWTGdmlOqFWnncgEyMVZgc5x2+7jAAFdBXOeC5LZ9IuEgbVRLFctHcw6rcNNNBKFXKbizfLgqwwSDuz3ro6ACiiigAooooAxvF/wDyJWvf9g64/wDRbVs1jeL/APkSte/7B1x/6LatmgAooooAKKKKACiiigAooooAKKKKACiiigAooooAKKKKACiiigAooooAKKKKACiiigAooooAKKKKACiiigAooooAKKKKACiiigAooooAKKKKACiiigAooooAKKKKACiiigAooooAKKKKACiikd1jRndgqqMlicACgDy/xZf/ANs/Eez0V1d7PT4/NkjI+UyldwJ9RgqOe5PrWE2ssL+68LrZvmfV47neDgBAFJGPTCg/TNdQssN14x8Q3ELpIolhiDoQfuxgEZ9jmoxosK+IjrAc+Y0PlMhGRnj5ge3AxXnSjKTbT3f4bfoeTOEpSck92/u2/QmutMhutTsr52cSWm/YBjB3DBzV2iitUkjdJLYKKKKBhRRRQAUUUUAFFFFABRWBr+q3CzR6VpgLahPzuB/1S5HJyO4zWFe+Mb+3gk04IrajHK0LXCgbSQ2MhfU10Qw1SaTX9eZ6VDKsRXhGcEtfy7+n9WO8orndI8WWt7ps91eNHbtA3zLuySvGCB7k4xW5a3UN7ax3Nu++KQZVsYrKdOUHaSOSvha1BtVI2s7eV99yaiiioMAooqBby3a8a0WZDcKm9oweQvrTs2NRb2WxPRRRSEFFFFABRRRQAUUUUAFFFFABRRRQAUUUUAFFFFABRRRQAUUUUAFFFFABRRRQBLa/8ftt/wBdk/8AQhXZVxtr/wAftt/12T/0IV2Vb0tmb0dmFFFFam4VjXP/ACOul/8AYOvP/RltWzWNc/8AI66X/wBg68/9GW1AGzRRRQAUUUUAFFFFABRRRQAUUUUAFFFFABRRRQAUUUUAFFFFABRRRQAUUUUAFcpNYDxHqU+q6Pql/pN5bO+nyTpHG6XCxscjY4YEK5cA8HO7qDXV1xrad4s0K9vU0GPSb3Tru4e6RL2aSGS3kkO5xlVYMpYluxG4jmgDR8IwWttaajBDLeTXUd9IL6a82+ZLNtX5jt+UAp5e0DGFxwDWxdajY2MtvFd3tvbyXL+XAksqoZW/uqCfmPI4HrWd4a0i60myuX1C4juNRvrhrq6eJSse8hVCoDztVUVRnk4z3qn40mWKwsP9Fu55BqFrJ/o1nLOVRJ43cnYpx8ozz1xxmgDcTUrCXUJNPjvbZ72Jd0lusqmRF45K5yByPzqKLW9Jms57yLVLKS1tyRNMlwhSMjqGbOB+NcRJp9/egafa2l1DfJe6jdNdPA6IYpo5xFiQgAn97CNucjyzkDFNNvPcyJqFvpV7DY2sempNbPaujsYZHZgqEZfYGQ5UEHHy5xQB3Mut6TBZwXkuqWUdrcECGZ7hAkhPQK2cH8KlfUrCLUI9PkvbZL2Vd0du0qiR155C5yRwfyrghbz20j6hcaVezWV1HqSQ26Wru6maRGUMgGU3hXOWAAz82M06DTdQtnGmXFrcy6hLfabcpdrEzRiOFIBLmTG1TmKYYJyfM4zmgDrPF/8AyJWvf9g64/8ARbVs1zvjlLx/BmsG0ngiUWM5lEsBkLr5bZCkOu0+5z9K6KgAooooAKKKKACiiigAooooAKKKKACiiigAooooAKKKKACiiigAooooAKKKKACiiigAooooAKKKKACiiigAooooAKKKKACiiigAooooAKKKKACiiigAooooAKKKKACiiigAooooAKKKKACvJPif4tsdS0o6TYXMn2mG/Mc8YBG4KpB6dVywHuR7V6zJIsUTyOcKilifYV4V4b8NC/mnvNQgbybiOOWJw2Mkncf1H61yYqUrKEepw42U2lTh9rc6bwvox0TR1t5Mee7F5SpyM9sfgBW1RRUxioqyJjFRiooKKKKZQUVn6trFto0Ec11v2SSCMbBkjqc49OK0AQQCOhqnFpXLdOaiptaO9vluFFFFSQFRzTR28DzTOEjQbmY9AKWaVIIXmlYLHGpZmPYDkmuY1fW9N1i3j0y0uPOkuJogVVGAKlgTzj0rSnTc3todOFws680kny31aW39I6aCeK5gSaFw8bjcrDoRVLXNR/s3TJJVV3lf93EqDJLnpXLaff6n4euYY9U/d6bEWtQQpwxGSHA6n6+lamj6XHrF9/wkFzKzuJm8hF4UIpIX69M10LDcs/e2/rQ9KOVeyrc1R3gtVbrrov8APsTeF9EubBpr6/lWa4uURgzAl04OQSfqPyq8fDmmtqsmoyQmS4d1kG48IyjsB+fOa1qK6XJ3ud0q85Scr2v2007GE3hPTH1j+0GhBG0YgxhNw6HH0HTpWKVj8Gauzu81xDdxtsjQchg4wAM9gxrt6r3FjbXUsEs8KSSQNviYjlT7fp+VDfMrS2H7bnThVu4tWt+RXTUrZ9JGpbsW/leaT3AxnH17VU0vxHY6rDcSxl4lt1VpDKAAAQT1z7Gudjklvw/h20ALJeyvOGGFWJZM4/M9vStHVvCkzzsNIeO2hul23Sljg85BA/MYrBYaOqfy9DkjldFKUajs29H2jdb+qvY2NS1i103TftruHVx+5C8+YxGQAR6+tc8PDGpWsNvqllOf7VLF542PyybiCRnjgdxVjR/Dep29/EdRuY57K1LeRGeecYBxjgY9+tdbWkIKkmlrc2o0o4NOEGpX37NdF/n5+hxtx4p1PRn8nV9MUuy7keF/lbnkd+gz+XvmutBDAEEEHkEUl3ALmzmhIB8yNlwfcYrn/Dmu2k2mwWc88cV5AvlPG5wflyOCevAycVjXpLl5oL1OPG4WEqSq0YWaetr/ACdtbHRUUiOsiK6MGVhkMDkEetLXIeMFFFZdtrtpc6tNpy7hIhKq5HyyED5gD6jvTUW726GkKU5puKvbV+hqUVDLdQQTQwyyqkkxIjUnliOuKmpWIcWkm1uFFNd0jQtI6qo6ljgU2CeG5iEsEqSxnoyNkH8aLdQ5Xa9tCSiiikIKKwNQ8Tpa6g1laWM97NGD5ghB+Q8YHTnr+FU5Nd12WeGzXTFtLi5IMTyZZVTnO70IwP8ADpW8cPUkr2O+nlmJqJStZPXVpad7b/gdXVe8v7Wwt3nuZljjTqSec+mPWub1DVvEFhbPHeWcKvORFbz27ZCufUEk89RV3TvBmmWTxyyK1xMq/N5nKlvXFaRw3Wb+46KeV8q5q8rLpbW/fXp22+Rnp4nuE1Fr2RZn0iYvFAqQ8llC4PrzzjP9KuWni+1cy/boJ7RSx8jfExMi9OwPIPWunxjpRgVq6VN9DrnQws1b2dtEtH2+Vrvq+pyx8WTY+0jRro6cG2m4zyBjklcdPx/wom1bVdUvJINCW3a1RkR7tjnBIySATzj8a6kgEEEZBqG1tLeygEFtEsUQyQqjimqdNO6QRo4WL5o09V3ba9Xfr+HkYEVl4oEktyb2yEj7QIGDNGAByQeoJ6/jT7g+Jra2lnZ9OkEKl9kaOWkx2roqKfLF7xRTVNu7px+45qPxhpzuAY7lY9mTJ5TEBv7vA60S+LrFoXFms087cQL5TAStnHB9u9dLTIoo4Y1jijSNF6KowB+FR7Gn2/Ex+qYW9+V/f/wDI0nxJBNqtjZ3UFxa3zTxqYXjPXI5B/u5716bXIWwH222OOfNTn/gQrr6mUIxfunNiKVOnL92rX87hRRRSMArGuf+R10v/sHXn/oy2rZrGuf+R10v/sHXn/oy2oA2aKKKACiiigAooooAKKKKACiiigAooooAKKKKACiiigAooooAKKKKACiiigAooooAKKKKACiiigAooooAxvF//Ila9/2Drj/0W1bNY3i//kSte/7B1x/6LatmgAooooAKKKKACiiigAooooAKKKKACiiigAooooAKKKKACiiigAooooAKKKKACiiigAooooAKKKKACiiigAooooAKKKKACiiigAooooAKKKKACiiigAooooAKKKKACiiigAooooAKKKp3GradaXMVtcX9rDPL/q45JVVm5xwCeeaTaW4m0tyHxFL5PhnVZQcFLOZvyQ1x2koI9HsUAxtgQf8Ajoqnr/ii38Y3CaBZxXS2n2gvPcAgJPCmRwQehfH5CtZEWNFRRhVGAPauSU1Od47I4pVFUneOy0HUUUUAFFFZ2o65YaVNHFeTGNpFLD5SeB9KqMXJ2SLp051JcsFd+Ri6vbSeINcnsPIHlWNszKxJG6R1BXntg4/I1r6LqCXGh2U88iI7IqnLDk52j8yKZ4aieSzl1OY5nv381h/dUcKPwFcVpHhu61DVXtLsuba2d4ZXjb7pUHGM+544r0HRUoKLdrH0zwVOtQVGUuVU7efTW3qz0yiuPS/1DwtJLBqk5u1miZ7aQuT868bOeefl/wDr81NF4iv9LRjr9sIvNRpIGjHBI/gIGcH3Nczw01tqeTPKcQm+S0l0t19F5dexY16OHWNUstEMjYyZ5wh5CgYA/EmtXTdD0/SkAtoF3AkiRwC4z1GeuKh0KweGF7672tfXeJJGx9wEDCj2AxWvXTFcsVFHpRvSpKhF6LfzfX/geSM7V9Hg1mGCK4JCRTLLgfxYzlT7HNWbGyh06yitLcERRjC5OT1zViiqu7WG5ycVG+gUUUUiAooooAiS2gimeaOCNJX+86qAW+pqWiigbdwooooEFc9qvhHT76CdreFILuXkS8kA7snjPfkfjXQ0U02tjSnUnTd4OxzWnWT6DrMNgLuee1uYGMaynO1kI4HoNproax/EltemO11DTl8y7s3JWPGd6sMMMflWSNI8UzW6xyaiI9gMwIf5i5/gJH8IOfbn6YyqUPaS5rpHPicD9ZmqvOlfe/fXWyXp/SGl9V8S6ggR3tdNV5RHcW7ckrwC3P8Ah1NXrrwfbtpEVnaTyQyQlnV8/fYrg59AcDpW1pVkNO0q2tABmNAGx3bufzzVytk+XSOx1qr7O0aOkVt/m/U46bwvqFxpxvLu9ln1WJQ8K7vlRgQcDHc4xn1q3B4nnuIImi0S/djw5CYUED5sHv0/GumoqZRjNe8jOr7Oskqsb226W8tOhylwk/ie9tbefTLq30+JzJKZxsL8YUD8SarWGqW3hu71LT3tbj7JDOGEqKXWMMBgN6dPxrtKi+y2++V/Jj3TY8w7R8+OBn1o5Y8vI1oNeydL2Eo+52Te973v3Ob/ALZ1+7jmlsNHAgBPlvO2GIH+znJJ7VONV1u5hH2fQ2iZx8rzygBT6svWuioqfZ0/5TJ0sPpamtPX8ddShpGnf2bYiJ38yd2Mk0n99z1NX6KKoptt3YhAPUA/WloooEFFFFABRRRQAUUUUAFFFFAElt/x+W//AF2T/wBCFdfXIW3/AB+W/wD12T/0IV19ZzOTFboKKKKg5QrGuf8AkddL/wCwdef+jLatmsa5/wCR10v/ALB15/6MtqANmiiigAooooAKKKKACiiigAooooAKKKKACiiigAooooAKKKKACiiigAooooAKKKKACiiigAooooAKKKKAMbxf/wAiVr3/AGDrj/0W1bNY3i//AJErXv8AsHXH/otq2aACiiigAooooAKKKKACiiigAooooAKKKKACiiigAooooAKKKKACiiigAooooAKKKKACiiigAooooAKKKKACiiigAooooAKKKKACiiigAooooAKKKKACiiigAooqhrGs2Whac97fTLHGvCju7Y4VR3JxSbSV2JtRV2X6K86k8SeLtUMUtra2ukxBS+2VvOMpOMK3AKjGenNUDN40h1WTUI72zae7iEEqgHyrcDG11Unk/e6+p/DB4hdEzmeKj0i38j1SkZlQZZgBnHJrzmC98aLuil1myZR8yzfZAWbPVSBgADtVWbQH1Pa2t6pe6j8xdoXl2w7iMZVB0xnjFDrvpEHiW17sX89P8zp/EHje20m8m0yztLm/1NFBMUKfLGSMrvbsORXD6b4KtTC8mrlrueYKxDEjy25LAEH+8Sa6DT9Ms9LhaKzgESs25uSST6knmrdYyTm7zMJxdR81TXy6f8Ejt7eK1gjggQJFGu1VHQCpKCQASTgDvXK3Hi+WdXj0jTbi4lU/edPl2ngNwc8n9K2p0pT0ijrw2Eq4h2pLb5JHQX2pWemxCS7uEiB6Ank/QdTVGLxHZS6RJqQSYRxvsMZUby3GABnvkVFpWizy38mrazFCb1sCONCSsQAx0JIyeverL+GdNfWRqbRsZgQ2zd8m4fxY9f0rqWHgl7z1/r+rnqQy/Dxjao231tt5pf5/gZlx4oeS0a3SwvbbUJ12W6Sx4BY8ZB9uvIq3Z+FotzTavMdRuGxhpRwgHOAM+uf8K3iiMysyKWX7pI5H0p1aRjGHwqx0w5KKaorlvv1fye6Q2ONIY1jjUIiAKqqMAAdqUIqsxVQCxySB1paKYire6bZ6gIxd26S+WcoWHKn2P4Cp5YYp4zHNGkiHqrqCD+FPooHzPuAGBgUUVBdXtrYwtLdTxwxr1Ltik2krsIxcnaKuyeis1PEOjSbduqWfzDIzMo/r+lVpvFWmLIYrdpryUHAS2iZ8n2PT9ah1qaV3JG0cJiJOyg/uf62NuiufXVdeuiRbaGtuvaS7nx/46BmmtN4seTy1g0uNc4Mu52B9wP8AGs3iqfS/3GywFT7Uor1kv0udFRXPhfFbEq02kKp/jVJCR+BOKXb4phOFm0y4B43Ojpt98A8/Sl9ah2f3f8EPqL/nj9//AADfornv7Q8SupgXSbZJg2DcNPmIj1C/e/Cgr4rUMol0py3AYq42e+O9P61Don9wfUZ9ZxX/AG9/kn/XQ6Giuf8AsviW4/dz6lZ20fd7aElz/wB9cCj/AIRaDO86jqfnH70ouiGNS8V/LH9BrCQXx1F8k3/kdBRXPt4ZU/d1nWF9hdkj9RTUtfFMK7V1OxnAGAZYCCfrihYrvF/mH1OD+Cqvmmv8zoqK55tQ17TGR7+0jv4GGCbBD5iHsSCeQf0p3/CQXrAbPD2oFvvENtUbfrnr7VaxNPrp8iXgK28bNd01+rX5G/RXOxjxRebXeaxsIzkhFjMjj0BycH8MUv8AY2sAeYviOcTsTuJgQpjthO1Q8UukWV9SS0lUin83+S/zOhornm0jW5FDv4ikWVeV2WyBM+47inra+JGAD6rZr7rak/zNH1pfyv8AD/MTwcelSP4/5G9RWA2k6vdMovNdkWIHJW0iETH/AIFkmmRaPrNq0i22vyGDOY1uYRKw9cscGj60r/C/wH9Thb+Kr+krffb9DoqKwP7H1VyTL4iucn/nnCiCl/sbUm4k8Q3hB67I0X8uOKPrX91/gL6pD/n6vul/kbjSIn33VfqcVA2oWSIXe8t1UHBYyqAD+dZS+E9IJL3ML3cx+9LcSMzH9anXw3oqOjjTLbcnT5P5jv8AjU/WZ9EvvK9hhlvKT+S/Vlv+19N2u39oWu1BliJl4H51nnxfoXIW+EjD+FI3Yn6YFWH0HSH250y0ypyMQqP5Cr6RpGAERVAGAAMYqXiKj7fiNU8Kukn80v0ZjDxVAXJXTtTaHoswtiVY+nr+lOHieI5/4lWrdcDNofm+lbNFL21Xv+Af7N/z7/8AJn/kYp8SPnI0PVynr5AB/LOaT/hILyc/6HoN9IvTdNth5/Gtuil7Wr/N+CHfDran/wCTSMX+1tcLHHh07f8AavEB/lQdU17GR4eTjt9uXn/x2tqij2lT+b8v8g56X/Ppf+Tf5mMNZ1Unjw7cY97iMf1pDq2tOv7vw8wJ6eZdIMfWtqij2lT+b8g5qP8Az6X3y/zM7TdQ1l9Us47jRUijM6B5Vu1YKNw5xjJr0euOtv8Aj9tv+uyf+hCuxrWnKTXvO55WZOLlHlilp0v382wooorQ80Kxrn/kddL/AOwdef8Aoy2rZrGuf+R10v8A7B15/wCjLagDZooooAKKKKACiiigAooooAKKKKACiiigAooooAKKKKACiiigAooooAKKKKACiiigAooooAKKKKACiiuX1rxDqFjqN59lS2+xabHBJdLIjGSUSOwIQhgF2queQ2SccdaAL/i//kSte/7B1x/6Latmud8c39nZeDNYS7u4IGnsZ44hLIFMjGNsKuTyfYV0VABRRRQAUUVj694m03w2kDai8qicsE8uJnzjGenTqKTaSuy6dOdSShBXbNiiuKPxT8NDo1430tzTD8VvDw6Ragfpb/8A16j21PudP9nYv/n1L7mdxRXCn4saB/z7amf+3cf/ABVNPxZ0H/nz1Q/9u6//ABVL21PuH9n4v/n1L7md5RXBH4taGOmn6sfpAv8A8XUZ+LmkZ40vVj/2xT/4qj21Pv8A19wf2fi/+fUvuZ6DRXnv/C3NK7aTqv8A36X/AOKpP+FuaZ20jVP+/a//ABVHt6ff+vuD+z8X/wA+pfcz0OivOz8XdO7aNqf/AHwv+NH/AAtzT/8AoDan/wB8L/jR7en3D+z8X/z6l9x6JRXnn/C29O/6A2qf98L/AI0h+Ldj/Dompn6qv+NHt6fcP7Pxf/PqX3HolFecn4t2vbQtR/IUn/C24O2gah+n+FL29PuH9n4v/n1L7v8Agno9Fedj4s2vfQtS/wC+RSN8Wbf+DQNRJ9wBT9vT7h/Z2L/59S+7/gnotFeb/wDC2fTw5e/99f8A2NJ/wtlu3hu8/wC+z/8AE0vrFPuH9n4v/n1L7v8AgnpNFeZn4sXPbwvckdv3zf8Axumn4sX3bwrP/wB/3/8AjVH1in3F/Z+L/wCfUvu/4J6dRXljfFPWWPyeGiB2yZD/AOyUw/E/xCwwnh0A+pSU/pgUvrNP+kL6hjP+fUvuX/yR6tRXkX/Ce+K5etvPF3/daSzfzemP4x8UTKQZNWTP/PHSEU/mzGl9Zj2YfUMb/wA+Zf8Akv8A8mewUV42PE/idcFbjxDkf3tNiYflinHxT4qbg3Gv4/2dKhH9KPrC7fkH9n47/ny/vj/8mexUV45/wk/ivtN4h46f8SyH/wCJpj654in/ANe3ilh/0yt0i/8AQVo+sLsH9n47/ny/vh/8kezUV4wdW1x/9Yvi5v8AdIT+S0xr7VZDmS28XSembl1/lij6x5fj/wAAP7Ox/wDz5/8AJof/ACR7VRXif2jUAcppvilW7sLyTJHpSfadT/h07xSD6i9kpfWPL8f+AH9m5h/z6/8AJof/ACR7bUE99aWyF57qCJR1aSQKB+deLu95L/rtB8QXA9Jr2QimRxvEQYvAbbh0Lnd/NaPbvol9/wDwB/2XmL2ppes4/wCZ6PP8QtEjmaO2W9vlThpbO3MiA/73Q/hU1p498O3V19nN61uxUsrXUbQq4HXBYAcVwC6t4oVQsPhsRoOAuOn6imTX2vXW0X3hNLlFOVVlBwfXnNL2k9+Zfcx/2NmW/uenNH/5I9EuvHfhq1XI1SG4cnaI7bMrE/Rc1Ql8fGfcuk6Ff3RDYEk4FvGR65bJ/SuNTUfEMYxbeFViPTqBx+lOOo+Mn+7osUf1GT/6HR7ST+0l8n/kH9jZhLdwX/b0f82dS3izxNKdsWg2UBB+9NeFwR7bVqoLjxZOWll8QpbszFhDBZxsiD+6Cwyfqa543PjVumnxr9FX/wCKphPjdjnySvsBGB+oNLfef5/oh/2Bin8VWP8A4Gv0OieHXplZJvFF6UY/MIoo4z+BAyPwpsekRi7jubm8vb2WIHyjdzmQR56lQehrnvL8bN94OB7NGP8A2SkOm+KLj5bkTMndTd7QfrtQGly0+r/BjXDtS/vVY/8AgV/1OweWOPG+RFz03MBmoxeWpdkFzDvUbmXeMgeprl4/DV6g40fSMkYzIZnP6jrTj4bvyFH9l6HhTkfu5v19a0vS7v7v+CbrIqfWqvvR03221xn7TDj18wVBLrWlw/6zULUEHGPNBP5Vhf8ACO6juz/Z2gjjH/HrKf61PFo2sRY8uLRosdCli3H60Xpef3L/ADGsjoreqvvX+TLj+J9KVikdw07j+GCNn/UDFRpq+sT8weH5dmM5luFQnPTgj0pY7DxAq4XULWEekVicfqad/ZeuN97X5/8AgFkg/pVKpSX2WzaGU4WG8k/Vyf5JEUtt4i1KMwTvaWNvKCH8rLyAdNvPH4ity2t47S1igjACxIEB9gKx/wCw79+Jtd1JgeojRU/ULxSf8IjpDDE1rPMe5lkkOT69etV9YsrRjb+vmdCwtCK5edJf3Y/5tGncatp1o224v7aJv7ryqD+WarHxLooi8z+1LXb6CQE/l1p1toWl2gxDpkK+5hyfzIqwLC0EolFlGJB0cQc/nip+sVOy/EfssKv5n/4Cv8zPPi7RADtvC7dlWJyT9BimnxIz/wDHvo2pyj1MOwfqa2sH+4/H+waOf7j/APfJqXWqvr+A0sMtoN+sv8kjAx4k1Jt4mh0mHqqhBNIf97PA/CmxN4ubEbjSk28GU7zu98A966Hn+4//AHyaOf7j/wDfJqLzvfmZp7eNrezjb0/W9387mGW8VR9P7Jl3e0i7ff3pfL8UKDi70tyezQuNv0wf51t8/wBx/wDvk0c/3H/75NHNP+Z/eL2y/kj93/BMJvD018QdX1O4ul6+TH+6j/JeT+dTW/hjRbWVZIrCPepyGYlsfma1+f7j/wDfJo5/uP8A98mp5U3dg8VWtyqVl2Wi+5WKUmjaZKMSafat827mFeT69KswwRW8SxQRJHGvREUAD8BUnP8Acf8A75NHP9x/++TTskZSqTkrNtr1/wCCFFHP9x/++TRz/cf/AL5NBIUUc/3H/wC+TRz/AHH/AO+TQAUUc/3H/wC+TRz/AHH/AO+TQAUUc/3H/wC+TRz/AHH/AO+TQAUUc/3H/wC+TRz/AHH/AO+TQAUUc/3H/wC+TRz/AHH/AO+TQAUUc/3H/wC+TRz/AHH/AO+TQAUUc/3H/wC+TRz/AHH/AO+TQAUUc/3H/wC+TRz/AHH/AO+TQAUUc/3H/wC+TRz/AHH/AO+TQAUUc/3H/wC+TRz/AHH/AO+TQAUUc/3H/wC+TRz/AHH/AO+TQAUUc/3H/wC+TRz/AHH/AO+TQAUUc/3H/wC+TRz/AHH/AO+TQAUUc/3H/wC+TRz/AHH/AO+TQAUUc/3H/wC+TRz/AHH/AO+TQBLbf8ftt/12T/0IV2Ncdahje22Ef/XJ/Cf7wrsa3pbM8zH/ABR/rqFFFFanAFY1z/yOul/9g68/9GW1bNY1z/yOul/9g68/9GW1AGzRRRQAUUUUAFFFFABRRRQAUUUUAFFFFABRRRQAUUUUAFFFFABRRRQAUUUUAFFFFABRRRQAUUUUAFYuo+GrXUtQ+1yXFzGHWJbiCJlEdwI3LoHypPBJ+6RkHByOK2qKAMbxf/yJWvf9g64/9FtWzVLWNPOraHqGnCXyjd20kHmbd2zepXOMjOM9Miqf2bxN/wBBfSP/AAVyf/JFAGzRWN9m8Tf9BfSP/BXJ/wDJFH2bxN/0F9I/8Fcn/wAkUAbNFY32bxN/0F9I/wDBXJ/8kUfZvE3/AEF9I/8ABXJ/8kUAbNFY32bxN/0F9I/8Fcn/AMkVTjfxS+sXNidQ0kJDbxTCX+zJcMXaQFf9f28sHr/F+YB0tFY32bxN/wBBfSP/AAVyf/JFH2bxN/0F9I/8Fcn/AMkUAbNFY32bxN/0F9I/8Fcn/wAkUfZvE3/QX0j/AMFcn/yRQBs0VjfZvE3/AEF9I/8ABXJ/8kUfZvE3/QX0j/wVyf8AyRQBs0VjfZvE3/QX0j/wVyf/ACRR9m8Tf9BfSP8AwVyf/JFAGzRWN9m8Tf8AQX0j/wAFcn/yRR9m8Tf9BfSP/BXJ/wDJFAGzRWN9m8Tf9BfSP/BXJ/8AJFH2bxN/0F9I/wDBXJ/8kUAbNFY32bxN/wBBfSP/AAVyf/JFH2bxN/0F9I/8Fcn/AMkUAbNFY32bxN/0F9I/8Fcn/wAkVT1J/FNhapMmoaTMWuIYdo0yUYEkqoW/1/YMT+HagDpaKxvs3ib/AKC+kf8Agrk/+SKPs3ib/oL6R/4K5P8A5IoA2aKxvs3ib/oL6R/4K5P/AJIo+zeJv+gvpH/grk/+SKANmisb7N4m/wCgvpH/AIK5P/kij7N4m/6C+kf+CuT/AOSKANmisb7N4m/6C+kf+CuT/wCSKPs3ib/oL6R/4K5P/kigDZorG+zeJv8AoL6R/wCCuT/5Io+zeJv+gvpH/grk/wDkigDZorG+zeJv+gvpH/grk/8Akij7N4m/6C+kf+CuT/5IoA2aKxvs3ib/AKC+kf8Agrk/+SKPs3ib/oL6R/4K5P8A5IoA2aKxvs3ib/oL6R/4K5P/AJIo+zeJv+gvpH/grk/+SKANmiua01/FN/avM+oaTCVuJodp0yU5EcrIG/1/cKD+Pern2bxN/wBBfSP/AAVyf/JFAGzRWN9m8Tf9BfSP/BXJ/wDJFH2bxN/0F9I/8Fcn/wAkUAbNFY32bxN/0F9I/wDBXJ/8kUfZvE3/AEF9I/8ABXJ/8kUAbNFY32bxN/0F9I/8Fcn/AMkUfZvE3/QX0j/wVyf/ACRQBs0VjfZvE3/QX0j/AMFcn/yRR9m8Tf8AQX0j/wAFcn/yRQBs0VjfZvE3/QX0j/wVyf8AyRR9m8Tf9BfSP/BXJ/8AJFAGzRWN9m8Tf9BfSP8AwVyf/JFH2bxN/wBBfSP/AAVyf/JFAGzRWN9m8Tf9BfSP/BXJ/wDJFH2bxN/0F9I/8Fcn/wAkUAbNFc1eP4ptbrT4V1DSZBdXBhZhpkv7sCJ33H9/6oB2+9Vz7N4m/wCgvpH/AIK5P/kigDZorG+zeJv+gvpH/grk/wDkij7N4m/6C+kf+CuT/wCSKANmisb7N4m/6C+kf+CuT/5Io+zeJv8AoL6R/wCCuT/5IoA2aKxvs3ib/oL6R/4K5P8A5Io+zeJv+gvpH/grk/8AkigDZorG+zeJv+gvpH/grk/+SKPs3ib/AKC+kf8Agrk/+SKANmisb7N4m/6C+kf+CuT/AOSKPs3ib/oL6R/4K5P/AJIoA2aKxvs3ib/oL6R/4K5P/kij7N4m/wCgvpH/AIK5P/kigDZorG+zeJv+gvpH/grk/wDkij7N4m/6C+kf+CuT/wCSKANmisb7N4m/6C+kf+CuT/5IqnpT+KdR0eyvpNQ0mB7m3jmaI6ZKTGWUEr/rx0zjpQB0tFY32bxN/wBBfSP/AAVyf/JFH2bxN/0F9I/8Fcn/AMkUAbNFY32bxN/0F9I/8Fcn/wAkUfZvE3/QX0j/AMFcn/yRQBs0VjfZvE3/AEF9I/8ABXJ/8kUfZvE3/QX0j/wVyf8AyRQBs0VjfZvE3/QX0j/wVyf/ACRR9m8Tf9BfSP8AwVyf/JFAGzRWN9m8Tf8AQX0j/wAFcn/yRR9m8Tf9BfSP/BXJ/wDJFAGzRWN9m8Tf9BfSP/BXJ/8AJFH2bxN/0F9I/wDBXJ/8kUAbNFY32bxN/wBBfSP/AAVyf/JFH2bxN/0F9I/8Fcn/AMkUAbNFY32bxN/0F9I/8Fcn/wAkVTjfxS+sXNidQ0kJDbxTCX+zJcMXaQFf9f28sHr/ABfmAdLRWN9m8Tf9BfSP/BXJ/wDJFH2bxN/0F9I/8Fcn/wAkUAbNFY32bxN/0F9I/wDBXJ/8kUfZvE3/AEF9I/8ABXJ/8kUAbNFY32bxN/0F9I/8Fcn/AMkUfZvE3/QX0j/wVyf/ACRQBs0VjfZvE3/QX0j/AMFcn/yRR9m8Tf8AQX0j/wAFcn/yRQBs0VjfZvE3/QX0j/wVyf8AyRR9m8Tf9BfSP/BXJ/8AJFAGzRWN9m8Tf9BfSP8AwVyf/JFH2bxN/wBBfSP/AAVyf/JFAGzRWN9m8Tf9BfSP/BXJ/wDJFH2bxN/0F9I/8Fcn/wAkUAbNY1z/AMjrpf8A2Drz/wBGW1H2bxN/0F9I/wDBXJ/8kUlppeqf25DqOo6jZziG2lgSO3s2h/1jRsSS0r5x5Y4wOtAG1RRRQAUUUUAFFFFABRRRQAUUUUAFFFFABRRRQAUUUUAFFFFABRRRQAUUUUAFFFFABRRRQAUUUUAFFFFABRRRQAUUUUAFIwJUgHBxwfSlpGUMpU5wRjg4NAHCNqWrjW10i21q4uLWe7jtG1B4Yd8MwjmllRMIEOBEi8qcFyMkjAsR6pqstlol0dRdSNVk0+5RYo9tyElkj3nK5Uny8/KR1rWt/BuiWmnixhiuxbKVZEN/cN5bA5DIS+UOSeVIJyakuvCmkXdpZWrxXMcNkd0CwXs0O1v7xKOCze5yeT6mgDCl1vV18ZGITzDTRqKWm4JEbcAwhthOPN83eeo+TBAznIrt6yz4d0s6r/aRt3+0eYJT++fyzIF2hzHnYW28bsZ961KACiiigAooooAKKKKACiiigAooooAKKKKAOc8Q3F9aX9gbHUphc3E8ccWniONklQOPNdiV3gBCTkMACB1Jwc3QdT1bUTpon1OQ/wBtaS9+mIo/9CYNFhU+XkYmA+fdynviugufDunXesLqsgulvVjWISRXk0Y2A7gpVWCkZPORz3pLbw1pVkbk20EsRuEMbFbmQFFJJKxnd+7GSThNvP0oAwIdT1ifwrolw13enzZWW9vLS1WWcKA4UiMIRywUEhDjPQdRveF9Sn1fw1Y31ypWeWP95kYywJUnA6ZxnHvTLfwtpdrpQ0yD7fHarJ5gVdRuNwOMYD7923k/LnGecZrVtreG0tora3iWKCJAkcaDAVQMAD8KAJaKKKACiiigAooooAKKKKACiiigAooooAqampOnykag+nqg3vcoEzGo5J+cFRwOpBrgv+Eg186bqV2b+WNdK086jEHgjVr6MyzeWJAV+XMcI+7tOZM8dK7vVdJs9b097C/jeS2kKllSV4ySpBHKkHqB3qlJ4V0ibyTNFcTGHgNLeTOXG4NtclzvXIztbIHpQBSvL2+svE8cUGoT3ieXLPd2bRxhLeEI2whlUMGLgABicjecfLxF4Y1LUpru1iv743gvdMjvwTGiiFyfmVdoGU+YY3ZPynk5417bw7p1pq0+pwLdJc3Ehll/0yYo7FduTGW2HgADjjAx0p+l6DpujNI1hbtGZFVDuld9qLnai7idqjJwq4Az0oA0qKKKACiiigAooooAKKKKACiiigAooooAK4vxXrGo6Dcy3Vjfy3ckdtPdy6e8UflRQRwuQxYKHBMiqBljnJwOCR2lZB8M6WdUudRMdx9ouseePtc3ly4XaA0e7YRjjGMUAZEc9/bz6pp1/wCIpkjs7W3vW1HyoVZFfzQy/c2bQYsglScNjJ61HJfa2vhzRdQlvZ7eZr+GKWNoIwbiGS4VF8wFfkYxkEhduGJ6YxWo3g3Q2097FrecwPLHKxN5NvLJjZ8+/dhcDC5wPSprzwxpuoWNtZ3Jv3ht38yP/iY3AbcG3As4fcxBAIyTjHGKANiimooRFQZIUYG4kn8SeTTqACiiigAooooAKKKKACiiigAooooAKy9fkEGmPcvq0+mww/PJLAkbsw6BQHVgSSRgAZJwB1rUrP1bRLHW44EvkmYW8omiMVxJCVcAgHKMDxk0AchZa34haJb2/uPJltL2xsLiwESbZGmWHe5OCwYGforYHlnrmti0k1KTxBfadDrNxcwR2x8+d4Yh9lnYqUVNqAE7CxIbdj5M/e50V8NaUt9DeGGZ54du1pLmVwxUEKzgsQ7AE4ZgSPWoYPCOj21reW0SXggvFkWeM387K3mHLkAv8pJz8wweTzzQA3wvd3V5DfPJeSX1mlyUs7uVEVpkCruPyBVI37wGAGQO/BO9VLTNKtdItvs9n9oEQxhZrmSbaAMADexwMdhxV2gAooooAKKKKACiiigAooooAKKKKACkYEqQDg44PpS0jKGUqc4IxwcGgDhG1LVxra6Rba1cXFrPdx2jag8MO+GYRzSyomECHAiReVOC5GSRgPn1XVn8NxXkWrSjU1uJ7G2to4Yit7NHM8YLgqSARHubaV2jce1bdv4N0S008WMMV2LZSrIhv7hvLYHIZCXyhyTypBOTTpPCOjSPaOIbmJ7SJoYGt72aIqjEFh8jjJJAJJyTjk0AVtTutSsPFWmBLi7NhdzeXIJVh+zL8jYRSB5u8soIJ+XkjOcCulrObQrB9UXUZEnknR/MQSXMjRo2Nu5Yy2xTgnkDPJ9a0aACiiigAooooAKKKKACiiigAooooAKKKKACiiigAooooAKKKKACiiigAooooAKKKKACiiigAooooAKKKKACiiigAooooAKKKKACiiigAooooAKKKKACiiigAooooAKKKKACiiigAooooAKKKKACiiigAooooAKKKKACiiigAooooAKKKKACiiigAooooAKKKKACiiigAooooAKKKKACiiigAooooAKKKKACiiigAooooAKKKKACiiigAooooAK5TxDbnUPGGg6fJdXsVrJa3kjpa3ktvvZTDtJMbKTjc3X1rq6y9V8P6frM9tPeLcia2V1ikt7uW3ZQ+3cMxspIO1eD6UAcdH4hv9JvtV0SPV1lNpeBLWS5spr6Z0MKSFNsJDNsL8uc4DLnJp+l67rXiHxF4avLW7gs7e60m5luLWSCR1LpPCr4G9MHnCkjKjdkHdx0p8G6D5FvClk8IgZ3R4LiWKTL437nVgzbsDO4nOBnpT4vCei28WnxW9rJbrp+77L5FxJGUDMGZcqwLKSASpyDgccUAc9oHjXUtZ1GwcWMrWF9I6hV0y5Q2ygMVdp2HluDtAIGMFhgtg13dZVr4c0yy1D7bbRTxSbmcRrdS+SGbO4iLdsBOTyF71q0AFFFFABRRRQAUUUUAFFFFABRRRQAUUUUAFFFFABRRRQAUUUUAFFFFABRRRQAUUUUAFFFFABRRRQAUUUUAFFFFABRRRQAUUUUAFFFFABRRRQAUUUUAFFFFABRRRQAUUUUAFFFFABRRRQAUUUUAFFFFABRRRQAUUUUAFFFFABRRRQAUUUUAFFFFABRRRQAUUUUAFFFFABRRRQAUUUUAFFFFABRRRQAUUUUAFFFFABRRRQAUUUUAFFFFABRRRQAUUUUAFFFFABRRRQAUUUUAFFFFABRRRQAUUUUAFFFFABRRRQAUUUUAFFFFABRRRQAUUUUAFFFFABRRRQAUUUUAFFFFABRRRQAUUUUAFFFFABRRRQAUUUUAFFFFABRRRQAUUUUAFFFFABRRRQAUUUUAFFFFABRRRQAUUUUAFFFFABRRRQAUUUUAFFFFABRRRQAUUUUAFFFFABRRRQAUUUUAFFFFABRRRQAUUUUAFFFFABRRRQAUUUUAFFFFABRRRQAUUUUAFFFFABRRRQAUUUUAFFFFAH/2Q==;" vertex="1" parent="1">
          <mxGeometry y="20" width="1080" height="360" as="geometry" />
        </mxCell>
        <mxCell id="l7Cj7QAhOYk1wxINT48V-2" value="" style="endArrow=oval;html=1;rounded=0;exitX=0.454;exitY=0.444;exitDx=0;exitDy=0;exitPerimeter=0;endFill=1;fontColor=default;strokeColor=none;" edge="1" parent="1">
          <mxGeometry width="50" height="50" relative="1" as="geometry">
            <mxPoint x="527.3199999999999" y="110" as="sourcePoint" />
            <mxPoint x="656" y="210" as="targetPoint" />
          </mxGeometry>
        </mxCell>
        <mxCell id="l7Cj7QAhOYk1wxINT48V-3" value="Revenue Parent LP" style="text;html=1;strokeColor=none;fillColor=none;align=center;verticalAlign=middle;whiteSpace=wrap;rounded=0;fontColor=none;noLabel=1;" vertex="1" parent="1">
          <mxGeometry x="400" y="90" width="140" height="30" as="geometry" />
        </mxCell>
        <mxCell id="l7Cj7QAhOYk1wxINT48V-4" value="" style="endArrow=oval;html=1;rounded=0;endFill=1;strokeColor=none;" edge="1" parent="1">
          <mxGeometry width="50" height="50" relative="1" as="geometry">
            <mxPoint x="480" y="210" as="sourcePoint" />
            <mxPoint x="617" y="299" as="targetPoint" />
          </mxGeometry>
        </mxCell>
        <mxCell id="l7Cj7QAhOYk1wxINT48V-5" value="" style="endArrow=oval;html=1;rounded=0;endFill=1;strokeColor=none;" edge="1" parent="1">
          <mxGeometry width="50" height="50" relative="1" as="geometry">
            <mxPoint x="480" y="210" as="sourcePoint" />
            <mxPoint x="616" y="318" as="targetPoint" />
          </mxGeometry>
        </mxCell>
        <mxCell id="l7Cj7QAhOYk1wxINT48V-6" value="Revenue Child LPs" style="text;html=1;strokeColor=none;fillColor=none;align=center;verticalAlign=middle;whiteSpace=wrap;rounded=0;fontColor=none;noLabel=1;" vertex="1" parent="1">
          <mxGeometry x="355" y="190" width="140" height="30" as="geometry" />
        </mxCell>
      </root>
    </mxGraphModel>
  </diagram>
</mxfile>
